<svg width="3325" height="1385" viewBox="0 0 3325 1385" fill="none" xmlns="http://www.w3.org/2000/svg">
<path d="M499.364 228.475H1076.66L1101.87 230.414L1117.38 232.354L1141.95 239.465L1156.82 244.636L1169.75 251.101L1176.86 254.98L1194.31 264.677L1202.72 271.788L1209.18 276.96L1213.71 280.192V281.485L1216.29 282.778L1223.4 289.242L1228.58 293.768L1233.1 299.586L1238.92 306.05L1246.03 315.101L1251.85 321.566L1257.02 329.97L1263.48 341.606L1272.54 360.354L1277.06 372.636L1284.17 395.263L1287.4 411.424L1289.34 430.172L1289.99 440.515L1290.64 459.909L1291.28 554.939V994.535L1290.64 1051.42L1288.7 1077.28L1286.11 1094.09L1280.29 1114.13L1273.83 1133.53L1269.3 1143.87L1262.84 1156.8L1256.37 1168.43L1253.79 1172.96L1248.62 1179.42L1242.15 1186.54L1238.27 1191.71L1230.52 1200.11L1225.99 1205.28L1220.17 1209.81L1212.41 1216.92L1203.36 1224.03L1194.96 1231.14L1187.85 1235.02L1180.09 1239.55L1167.81 1245.36L1157.46 1250.54L1148.41 1253.77L1130.31 1259.59L1116.74 1263.46L1090.23 1266.7L1077.95 1267.99L1055.97 1268.64H510.354L476.091 1267.99L454.111 1266.7L432.131 1264.11L421.141 1262.17L402.394 1256.35L388.172 1251.83L381.061 1248.6L367.485 1242.13L355.202 1235.67L346.152 1230.49L341.626 1225.97L334.515 1220.15L328.051 1214.98L321.586 1209.16L316.414 1204.64L313.182 1201.4L304.778 1192.35L300.253 1187.18L293.141 1178.78L286.677 1169.73L277.626 1153.57L273.747 1146.45L267.283 1132.88L258.879 1106.37L256.293 1097.97L253.707 1081.16L252.414 1067.59L251.768 1052.07L251.121 552.354V457.323L251.768 435.99L254.354 409.485L256.293 397.848L259.525 386.859L266.636 365.525L271.808 353.889L277.626 342.899L286.03 328.03L290.556 321.566L297.02 314.455L304.131 305.404L312.535 296.354L317.061 291.182L323.525 284.717L341.626 270.495L348.737 264.677L372.01 251.747L385.586 244.636L403.04 238.818L423.727 232.354L432.131 231.061L448.293 229.768L461.869 229.121L499.364 228.475ZM741.788 281.485L719.162 283.424L699.768 286.01L674.556 290.535L648.051 297L630.596 302.172L611.202 308.636L588.576 317.687L573.061 324.798L559.485 331.263L550.434 336.434L536.212 344.192L524.576 351.303L517.465 355.828L505.828 363.586L499.364 368.111L492.253 373.283L485.788 378.455L476.737 384.919V386.212L474.152 387.505L467.04 393.323L454.111 404.96L448.939 409.485V410.778L446.354 412.071L436.01 422.414L431.485 427.586L425.667 433.404L421.141 438.576L415.323 445.04L410.798 450.212L406.919 455.384V456.677H405.626L400.455 463.788L392.051 474.778L387.525 481.242L380.414 491.586L372.01 505.162L363.606 519.384L355.202 534.899L347.444 550.414L342.273 562.697L339.687 567.869L333.869 582.737L329.99 593.727L322.879 615.707L316.414 639.626L312.535 657.081L309.949 670.657L306.717 695.869L304.778 713.97L303.485 742.414V760.515L304.778 783.141L306.717 798.657L309.949 823.222L314.475 847.141L319.646 869.121L323.525 882.697L331.283 905.97L336.455 920.192L344.212 938.939L353.263 957.687L358.434 968.03L365.545 981.606L374.596 996.475L380.414 1005.53L388.818 1017.81L397.869 1030.09L406.273 1040.43L413.384 1049.48L420.495 1057.24L425.02 1062.41L437.303 1074.7L441.182 1079.22L446.354 1083.75L457.343 1094.74L462.515 1099.26L470.919 1107.02L478.677 1112.84L490.313 1121.89L501.949 1130.29L519.404 1141.93L531.687 1149.69L545.263 1157.44L560.131 1165.2L572.414 1171.67L591.162 1180.07L609.263 1187.18L632.535 1194.94L653.222 1200.76L682.313 1207.22L714.636 1212.39L739.202 1214.33L753.424 1214.98H796.737L820.01 1213.04L841.343 1210.45L869.141 1205.28L888.535 1200.76L911.162 1194.29L933.788 1186.54L951.889 1179.42L957.707 1176.84L964.172 1174.25L966.758 1172.31L973.869 1169.73L978.394 1167.14L986.152 1163.26L995.848 1158.09L1004.9 1152.92L1021.06 1143.22L1034.64 1134.17L1045.63 1126.41L1053.38 1120.6L1062.43 1113.48L1068.9 1108.31L1077.3 1101.2L1085.06 1094.09L1090.23 1089.57L1114.8 1065L1119.32 1059.83L1123.85 1055.3L1129.67 1048.19L1136.13 1040.43L1142.6 1032.03L1152.29 1019.1L1169.1 993.889L1182.03 971.263L1191.73 953.162L1200.13 935.061L1209.83 910.495L1218.23 885.929L1224.7 862.01L1229.22 841.97L1234.39 811.586L1236.98 787.02L1237.63 778.616L1238.27 761.162V734.01L1236.98 709.444L1234.39 684.879L1229.22 654.495L1225.99 638.98L1219.53 615.707L1209.18 584.03L1200.13 562.05L1193.02 546.535L1183.32 527.141L1174.27 511.626L1166.52 498.697L1160.05 489L1153.59 479.949L1148.41 472.838L1140.66 462.495L1133.55 453.444L1127.73 446.333L1121.91 439.869L1116.09 432.758L1104.45 421.121L1102.52 418.535H1101.22V417.242L1096.05 412.717L1085.71 402.374L1080.54 397.848L1073.42 391.384L1055.32 377.162L1046.92 370.697L1033.99 361.646L1017.18 350.657L1001.67 341.606L990.03 335.141L972.576 326.091L950.596 316.394L935.727 310.576L913.747 302.818L886.596 295.061L863.97 289.889L834.232 284.717L816.131 282.778L796.737 281.485H741.788Z" fill="#FBFBFB"/>
<path d="M966.758 574.333H1035.93L1044.98 574.98L1054.68 577.566L1061.14 582.091L1066.31 587.909L1070.19 595.667L1071.48 600.838L1072.13 611.182V756.636L1071.48 757.283L902.111 757.929L895.646 760.515L889.182 766.333L885.303 772.798L884.657 775.384L884.01 799.303V851.02L884.657 865.889L887.242 872.354L891.768 879.465L897.586 883.343L905.99 885.283L1072.13 885.929V995.182L1070.84 1006.82L1067.61 1013.28L1062.43 1018.45L1055.97 1022.33L1044.33 1026.86L1037.87 1028.15H1032.7L1032.05 900.798L1031.4 899.505L1028.82 898.859H1019.77L1018.47 899.505L1017.83 904.03L1017.18 942.818L1016.54 1039.79L1014.6 1046.25L1010.07 1053.36L1007.48 1054.66V1055.95L1000.37 1061.12L993.909 1064.35L991.323 1065H520.05L507.768 1063.06L496.131 1059.18L485.141 1054.01L478.677 1049.48L473.505 1043.67L470.919 1039.14L470.273 1036.56L469.626 633.808L472.859 635.101L479.97 639.626L492.253 644.798L500.657 646.737L505.182 647.384L991.97 648.03L1001.67 649.97L1007.48 653.848L1012.01 659.02L1015.24 666.131L1016.54 671.303L1017.18 694.576L1017.83 738.535L1019.12 741.121L1023.65 742.414H1028.17L1030.76 741.768L1032.05 735.303V682.939L1030.76 667.424L1028.82 659.667L1024.29 650.616L1019.12 644.152L1010.72 637.687L1003.61 634.455L994.556 631.869L989.384 621.525L977.101 596.313L969.99 581.444L966.758 575.626V574.333Z" fill="#FBFBFB"/>
<path d="M779.283 415.303L784.455 417.889L794.152 426.939L801.909 435.99L807.727 443.101L812.899 448.273L818.717 455.384L824.535 461.848L830.354 468.96L837.465 476.717L843.283 483.828L849.747 490.939H852.98L865.263 484.475L891.768 470.899L901.465 465.727L905.99 463.788H910.515L913.747 466.374L920.212 478.01L931.848 501.929L938.96 516.798L949.949 539.424L958.354 557.525L959 558.172L1040.45 558.818L1051.44 560.111L1059.85 562.697L1066.96 566.576L1073.42 571.747L1079.24 578.859L1083.77 587.909L1086.35 596.313L1087.65 609.889V996.475L1086.35 1006.82L1083.12 1016.52L1077.3 1025.57L1072.13 1030.74L1063.08 1036.56L1052.74 1040.43L1037.87 1043.67L1030.11 1044.31L1029.46 1049.48L1025.59 1057.24L1020.41 1063.71L1013.95 1070.17L1004.9 1075.34L993.263 1079.22L987.444 1080.52L606.03 1081.16L515.525 1080.52L500.657 1077.93L491.606 1074.7L481.909 1070.17L472.859 1065L465.747 1059.18L460.576 1052.72L456.697 1044.96L454.758 1035.26L454.111 1002.94V636.394L454.758 606.01L456.051 598.253L461.222 587.909L468.98 578.859L474.798 573.687L483.848 567.869L492.899 563.99L503.242 561.404L516.818 559.465L536.859 558.818H618.313L622.838 556.879L633.182 547.182L640.939 540.071L646.111 535.545L654.515 527.788L660.98 521.323L666.152 516.798L675.202 509.04L683.606 501.283L696.535 489.646L706.879 479.95L714.636 472.838L721.101 467.02L728.859 459.909L734.03 455.384L740.495 449.566L749.545 441.162L754.717 436.636L762.475 429.525L770.879 421.768L777.99 415.95L779.283 415.303ZM966.758 574.333L968.051 578.212L976.455 594.374L984.859 612.475L990.677 624.758L994.556 631.869L1005.55 635.101L1011.36 638.333L1019.12 644.152L1024.29 650.616L1028.82 659.667L1030.76 667.424L1032.05 682.939V735.303L1031.4 739.828L1030.76 741.768L1028.17 742.414H1023.65L1019.12 741.121L1017.83 738.535L1017.18 694.576L1016.54 671.303L1013.95 662.899L1010.07 656.434L1004.25 651.263L999.727 649.323L991.97 648.03L505.182 647.384L494.838 645.444L485.788 642.212L476.737 637.687L470.919 633.808H469.626L470.273 1036.56L472.212 1041.73L477.384 1048.19L481.909 1052.07L492.899 1057.89L505.182 1062.41L514.232 1064.35L520.051 1065H991.323L998.434 1062.41L1004.9 1057.89L1007.48 1055.95V1054.66L1010.07 1053.36L1015.24 1044.96L1016.54 1039.79L1017.18 942.818L1017.83 904.03L1018.47 899.505L1019.77 898.859H1028.82L1031.4 899.505L1032.05 900.798L1032.7 1028.15H1037.87L1048.21 1025.57L1058.56 1021.04L1064.37 1016.52L1068.9 1011.34L1070.84 1006.82L1072.13 995.182V885.929L905.99 885.283L897.586 883.343L891.121 878.818L886.596 871.707L884.657 865.889L884.01 851.02V799.303L884.657 775.384L886.596 770.212L891.121 764.394L895.646 760.515L902.111 757.929L1071.48 757.283L1072.13 756.636V611.182L1071.48 600.838L1069.55 594.374L1066.31 587.909L1059.85 580.798L1054.68 577.566L1044.98 574.98L1035.93 574.333H966.758Z" fill="#FBFBFB"/>
<path d="M902.111 481.889H904.697L912.455 498.051L917.626 509.04L922.798 519.384L938.96 552.354L946.071 567.222L960.939 597.606L970.636 617.646L976.455 630.576L977.101 632.515H657.747L613.141 633.162L615.081 631.222L628.657 623.465L652.576 611.182L664.859 604.717L687.485 593.081L699.768 586.616L715.283 578.859L727.566 572.394L745.667 563.343L757.949 556.879L777.99 546.535L790.273 540.071L816.778 526.495L829.061 520.03L848.455 510.333L860.737 503.869L885.949 490.939L900.172 483.182L902.111 481.889Z" fill="#010101"/>
<path d="M926.03 772.798H1072.13V870.414H907.283L903.404 869.121L900.172 866.535L899.525 864.596L898.879 835.505V812.232L899.525 778.616L900.818 774.737L904.051 773.444L926.03 772.798Z" fill="#010101"/>
<path d="M778.636 434.697L781.222 435.99L787.687 443.101L792.212 448.273L801.263 459.263L809.667 468.96L816.778 476.717L822.596 483.828L829.707 492.232L835.525 499.343V500.636L816.131 510.333L803.848 516.798L784.455 526.495L772.172 532.96L743.727 547.182L729.505 554.939L715.283 562.05L703 568.515L673.263 583.384L660.98 589.848L648.05 596.313L635.768 602.778L622.838 609.242L610.556 615.707L581.465 630.576L573.061 633.162H564.01L565.303 630.576L569.828 625.404L577.586 618.293L585.99 610.535L591.162 606.01L595.687 601.485L600.859 596.96L609.909 588.556L615.081 584.03L622.838 576.919L629.303 571.101L637.061 563.99L649.99 552.354L654.515 547.828L659.687 543.303L668.091 535.545L673.263 531.02L677.788 526.495L682.96 521.97L691.364 514.212L697.828 508.394L705.586 501.283L713.99 493.525L720.455 487.707L735.97 473.485L745.667 464.434L750.838 459.909L757.303 454.091L762.475 449.566L772.172 440.515L778.636 434.697Z" fill="#010101"/>
<path d="M557.545 574.333H602.798L598.919 578.859L589.222 587.909L584.051 592.434L577.586 598.253L567.242 607.95L558.192 615.707L547.202 626.051L540.737 631.869L539.444 632.515H513.586L501.303 630.576L491.606 627.343L481.909 622.172L477.384 618.293L472.859 611.828L471.566 607.303V602.131L474.798 595.667L480.616 589.202L490.313 582.091L498.071 578.212L511 575.626L520.05 574.98L557.545 574.333Z" fill="#010101"/>
<path d="M935.081 800.596H942.838L946.071 802.535V840.03L944.131 841.323H933.141L931.848 840.03L931.202 837.444V803.828L933.141 801.242L935.081 800.596Z" fill="#FCFCFC"/>
<path d="M1183.32 969.97V971.909L1182.68 973.849H1181.38L1180.74 978.374L1178.8 979.02L1178.15 982.253L1174.92 988.071L1172.33 992.596H1171.04L1170.39 995.182L1168.45 999.061L1166.52 1001.65L1161.99 1008.76L1157.46 1015.22L1156.17 1016.52L1155.53 1017.81H1154.23L1152.94 1020.39H1151.65V1022.98L1148.41 1026.21L1145.18 1031.38L1141.3 1035.91H1140.01L1138.72 1039.14H1137.42L1136.13 1041.73L1133.55 1045.61L1130.96 1046.9L1132.25 1044.31L1140.01 1034.62L1149.71 1021.69L1154.23 1015.22L1164.58 999.707L1171.04 989.364L1180.09 973.849L1181.38 971.263L1183.32 969.97Z" fill="#F3F3F3"/>
<path d="M410.798 1046.9H412.091L417.909 1054.01L427.606 1064.35L437.949 1074.7L441.182 1078.58L443.768 1080.52V1081.81L446.354 1083.1L454.111 1090.86L453.465 1092.15L445.707 1085.04L426.313 1065.65L421.788 1060.47L417.263 1055.95L411.444 1048.84L410.798 1046.9Z" fill="#EBEBEB"/>
<path d="M1154.88 1015.87L1156.17 1017.16L1154.23 1017.81L1152.94 1020.39H1151.65V1022.98L1148.41 1026.21L1145.18 1031.38L1141.3 1035.91H1140.01L1138.72 1039.14H1137.42L1136.13 1041.73L1133.55 1045.61L1130.96 1046.9L1132.25 1044.31L1140.01 1034.62L1153.59 1016.52L1154.88 1015.87Z" fill="#E7E7E7"/>
<path d="M1165.22 1000.35L1166.52 1001.65L1161.99 1008.76L1157.46 1015.22L1154.23 1016.52L1155.53 1013.28L1163.93 1001L1165.22 1000.35Z" fill="#F0F0F0"/>
<path d="M1207.89 913.727H1209.18L1207.24 920.192L1202.72 931.828L1201.42 934.414L1200.78 938.293L1198.84 940.232L1196.9 944.111L1196.25 942.172L1202.07 928.596L1207.89 913.727Z" fill="#EAEAEA"/>
<path d="M1194.96 944.758H1196.25L1195.61 948.636H1194.31L1193.02 952.515L1191.08 957.04L1189.79 959.626L1186.56 965.444L1185.91 968.677L1184.62 969.97L1183.32 969.323L1184.62 965.444L1191.08 953.162L1194.96 944.758Z" fill="#E8E8E8"/>
<path d="M1183.32 969.97V971.909L1182.68 973.849H1181.38L1180.74 978.374L1178.8 979.02L1178.15 982.253L1177.51 983.545L1173.63 986.131L1174.92 982.899L1181.38 971.263L1183.32 969.97Z" fill="#EFEFEF"/>
<path d="M410.798 1046.9H412.091L417.909 1054.01L426.96 1063.71H425.02L417.263 1055.95L411.444 1048.84L410.798 1046.9Z" fill="#E9E9E9"/>
<path d="M395.929 1028.15H397.222L405.626 1039.14L407.566 1041.73L406.919 1043.02L403.687 1039.14V1037.85H402.394L398.515 1032.68L396.576 1030.74L395.929 1028.15Z" fill="#E9E9E9"/>
<path d="M1207.89 913.727H1209.18L1207.24 920.192L1204.01 927.95H1202.72L1204.66 922.131L1207.89 913.727Z" fill="#E4E4E4"/>
<path d="M1160.05 1008.76L1161.34 1009.4L1157.46 1015.22L1154.23 1016.52L1155.53 1013.28L1158.76 1010.05L1160.05 1008.76Z" fill="#F4F4F4"/>
<path d="M1154.88 1015.87L1156.17 1017.16L1154.23 1017.81L1152.94 1020.39H1151.65V1022.98L1149.06 1023.63L1150.35 1021.04L1153.59 1016.52L1154.88 1015.87Z" fill="#EEEEEE"/>
<path d="M1183.32 969.97V971.909L1182.68 973.849H1181.38L1180.74 977.081L1178.15 978.374L1179.44 975.141L1181.38 971.263L1183.32 969.97Z" fill="#F0F0F0"/>
<path d="M410.798 1046.9H412.091L417.909 1054.01H415.97L410.798 1048.19V1046.9Z" fill="#E5E5E5"/>
<path d="M1143.89 1030.74L1145.18 1032.03L1141.95 1035.26L1140.01 1035.91V1037.2H1138.72L1140.01 1034.62L1142.6 1031.38L1143.89 1030.74Z" fill="#EFEFEF"/>
</svg>
