<svg width="1068" height="781" viewBox="0 0 1068 781" fill="none" xmlns="http://www.w3.org/2000/svg">
<g clip-path="url(#clip0_1_107)">
<path d="M511 83C511.495 84.485 511.495 84.485 512 86C513.992 86.6898 515.994 87.3502 518 88C520.99 89.5654 523.865 91.313 526.75 93.0625C528.265 93.9705 529.781 94.878 531.297 95.7852C531.96 96.1862 532.624 96.5871 533.308 97.0003C534.513 97.7122 535.748 98.374 537 99C537 99.66 537 100.32 537 101C538.176 101.217 538.176 101.217 539.375 101.438C542 102 542 102 544 103C544 103.66 544 104.32 544 105C545.176 105.217 545.176 105.217 546.375 105.438C549 106 549 106 551 107C551 107.66 551 108.32 551 109C551.743 109.124 552.485 109.248 553.25 109.375C555.829 109.961 557.748 110.633 560 112C561.357 114.715 561.127 116.847 561.129 119.887C561.133 121.121 561.136 122.356 561.139 123.628C561.137 124.981 561.135 126.334 561.133 127.688C561.133 129.07 561.134 130.452 561.136 131.835C561.137 134.733 561.135 137.632 561.13 140.53C561.125 144.25 561.128 147.969 561.134 151.688C561.138 154.543 561.136 157.398 561.134 160.253C561.133 161.624 561.134 162.996 561.136 164.368C561.139 166.283 561.134 168.198 561.129 170.113C561.129 171.204 561.128 172.295 561.127 173.419C561 176 561 176 560 178C556.938 178.625 556.938 178.625 554 179C554 179.66 554 180.32 554 181C552.378 181.838 550.752 182.67 549.125 183.5C548.22 183.964 547.315 184.428 546.383 184.906C544 186 544 186 542 186C542 186.66 542 187.32 542 188C538.535 188.99 538.535 188.99 535 190C535 190.66 535 191.32 535 192C531.535 192.99 531.535 192.99 528 194C528 194.66 528 195.32 528 196C526.35 196.33 524.7 196.66 523 197C523.495 208.88 523.495 208.88 524 221C525.905 221.11 527.81 221.219 529.773 221.332C532.307 221.492 534.841 221.652 537.375 221.813C539.253 221.918 539.253 221.918 541.168 222.025C550.723 222.651 559.686 223.313 567 230C568.168 230.694 568.168 230.694 569.359 231.402C577.164 236.124 583.348 242.58 587 251C587 252.32 587 253.64 587 255C587.66 255 588.32 255 589 255C589.33 257.31 589.66 259.62 590 262C590.66 262 591.32 262 592 262C592.915 278.751 592.915 278.751 588.371 284.582C586.685 286.325 585.132 287.824 583 289C582.34 289 558.858 284.582 560.207 289C555.651 293 569.011 295.81 569.5 297C571.487 302.86 584.543 304.203 584.789 310.328C584.962 313.345 585.307 316.069 586 319C586.66 319 587.32 319 588 319C590.909 326.237 591.328 333.362 591.375 341.063C591.389 341.984 591.402 342.905 591.416 343.854C591.33 357.353 586.063 369.102 577 379C572.373 383.167 567.653 386.371 562 389C561.408 389.496 560.817 389.993 560.207 390.504C551.14 396.65 534.502 394.19 524 394C524.01 394.569 524.021 395.138 524.032 395.725C524.074 398.337 524.099 400.95 524.125 403.563C524.142 404.458 524.159 405.353 524.176 406.275C524.182 407.155 524.189 408.035 524.195 408.941C524.206 409.743 524.216 410.544 524.227 411.369C524 414 524 414 522 421C529.59 425.29 537.18 429.58 545 434C545 434.66 545 435.32 545 436C545.784 436.144 546.567 436.289 547.375 436.438C550 437 550 437 552 438C552 438.66 552 439.32 552 440C552.743 440.103 553.485 440.206 554.25 440.313C557.321 441.08 558.745 441.789 561 444C561.508 446.65 561.508 446.65 561.518 449.877C561.53 451.085 561.543 452.293 561.556 453.538C561.548 454.844 561.54 456.15 561.531 457.496C561.534 458.85 561.538 460.204 561.543 461.557C561.549 464.395 561.54 467.231 561.521 470.069C561.499 473.702 561.512 477.334 561.536 480.967C561.55 483.763 561.546 486.558 561.535 489.354C561.531 491.344 561.543 493.334 561.556 495.323C561.543 496.535 561.531 497.746 561.518 498.994C561.514 500.06 561.511 501.125 561.508 502.223C560.875 505.683 559.69 506.81 557 509C555.397 510.061 553.756 511.065 552.086 512.016C550.698 512.808 550.698 512.808 549.281 513.617C548.322 514.156 547.363 514.695 546.375 515.25C545.408 515.804 544.441 516.359 543.445 516.93C536.267 521 536.267 521 534 521C533.67 521.99 533.34 522.98 533 524C531.02 524.33 529.04 524.66 527 525C527 525.66 527 526.32 527 527C525.044 528.005 523.085 529.004 521.125 530C519.489 530.835 519.489 530.835 517.82 531.688C515 533 515 533 513 533C513 533.66 513 534.32 513 535C509.561 537.116 507.005 537.471 503 537C501.133 536.125 499.426 535.118 497.68 534.023C495.553 532.728 493.336 531.849 491 531C491 530.34 491 529.68 491 529C488.69 528.34 486.38 527.68 484 527C484 526.34 484 525.68 484 525C481.69 524.34 479.38 523.68 477 523C477 522.34 477 521.68 477 521C474.69 520.34 472.38 519.68 470 519C470 518.34 470 517.68 470 517C469.216 516.773 468.433 516.546 467.625 516.313C462.877 514.593 458.479 512.319 454 510C454 509.34 454 508.68 454 508C453.34 508 452.68 508 452 508C450.933 504.799 450.86 502.473 450.839 499.107C450.829 497.896 450.82 496.685 450.81 495.437C450.806 494.127 450.801 492.818 450.797 491.469C450.791 490.113 450.785 488.756 450.78 487.4C450.769 484.559 450.763 481.718 450.76 478.876C450.754 475.235 450.73 471.593 450.702 467.951C450.683 465.151 450.678 462.351 450.676 459.551C450.672 457.555 450.653 455.559 450.634 453.563C450.637 452.352 450.64 451.141 450.644 449.893C450.64 448.825 450.636 447.757 450.633 446.656C451 444 451 444 452.327 442.198C454.679 440.514 457.265 439.892 460 439C460.33 438.34 460.66 437.68 461 437C462.717 435.915 462.717 435.915 464.941 434.738C468.319 432.917 471.658 431.053 474.965 429.105C475.784 428.625 476.603 428.145 477.447 427.65C479.136 426.658 480.824 425.663 482.51 424.666C483.32 424.192 484.13 423.719 484.965 423.23C485.693 422.801 486.421 422.372 487.172 421.93C489 421 489 421 491 421C490.509 420.234 490.018 419.469 489.512 418.68C487.475 413.723 487.673 409.421 487.812 404.125C487.826 403.15 487.84 402.176 487.854 401.172C487.889 398.781 487.938 396.391 488 394C487.391 394.011 486.782 394.021 486.155 394.032C459.993 394.423 459.993 394.423 450 390C449.526 389.505 449.051 389.01 448.562 388.5C446.984 386.758 446.984 386.758 444.125 386.125C440.356 384.768 438.668 382.949 436 380C435.34 379.381 434.68 378.763 434 378.125C427 370.688 427 370.688 427 366C426.01 365.67 425.02 365.34 424 365C423.246 362.693 422.589 360.354 422 358C421.656 357.273 421.312 356.546 420.957 355.797C419.653 351.985 419.709 348.499 419.75 344.5C419.738 343.38 419.738 343.38 419.727 342.238C419.741 338.042 420.084 334.831 422 331C422.66 331 423.32 331 424 331C424.99 329.02 424.99 329.02 426 327C426.99 327 427.98 327 429 327C428.841 326.224 428.683 325.448 428.52 324.648C428.104 321.732 437.511 327.581 437.438 324.648C458.248 335.898 448.582 326.49 448.562 324.648C448.391 319.126 426.698 298.441 423.851 293.669C423 292 423 292 423 289C422.34 289 421.68 289 421 289C420.219 285.543 419.872 282.347 419.867 278.805C419.866 277.842 419.865 276.879 419.863 275.887C419.867 274.893 419.871 273.899 419.875 272.875C419.871 271.873 419.867 270.872 419.863 269.84C419.865 268.88 419.866 267.919 419.867 266.93C419.868 266.056 419.869 265.181 419.871 264.281C420 262 420 262 421 259C421.66 259 422.32 259 423 259C423.041 257.866 423.082 256.731 423.125 255.563C424.075 247.909 429.518 242.06 435 237C435.804 236.154 436.609 235.309 437.438 234.438C441.504 230.57 445.709 227.846 451 226C451.67 225.753 452.341 225.505 453.031 225.25C454.16 224.848 454.16 224.848 455.312 224.438C456.01 224.189 456.707 223.94 457.426 223.684C464.384 221.836 471.356 221.871 478.5 221.938C483.202 221.968 483.202 221.968 488 222C488 213.75 488 205.5 488 197C486.02 196.34 484.04 195.68 482 195C480.242 194.03 478.511 193.009 476.812 191.938C474.149 190.264 471.994 188.998 469 188C469 187.34 469 186.68 469 186C466.69 185.34 464.38 184.68 462 184C462 183.34 462 182.68 462 182C460.917 181.598 460.917 181.598 459.812 181.188C452.563 178.127 452.563 178.127 451 175C450.888 173.081 450.841 171.159 450.823 169.237C450.81 168.029 450.797 166.82 450.784 165.576C450.777 164.264 450.769 162.953 450.762 161.602C450.758 160.935 450.754 160.269 450.749 159.583C450.729 156.058 450.714 152.532 450.705 149.007C450.694 145.366 450.659 141.726 450.62 138.085C450.594 135.285 450.585 132.485 450.582 129.685C450.574 127.691 450.548 125.696 450.521 123.702C450.524 122.488 450.527 121.273 450.53 120.022C450.524 118.953 450.518 117.885 450.512 116.783C451.119 113.319 452.276 112.152 455 110C456.326 109.638 457.659 109.303 459 109C459.404 108.574 459.808 108.148 460.224 107.71C462.67 105.355 465.402 103.892 468.348 102.207C468.96 101.856 469.573 101.505 470.204 101.144C471.494 100.406 472.786 99.6708 474.079 98.9378C476.063 97.8124 478.04 96.6773 480.018 95.541C481.273 94.825 482.529 94.1094 483.785 93.3945C485.5 92.4177 485.5 92.4177 487.25 91.4212C490 90 490 90 492 90C492 89.34 492 88.68 492 88C498.628 84.1258 503.297 82.3788 511 83Z" fill="#F8F8F8"/>
<path d="M213 174C213.66 174 214.32 174 215 174C215.002 174.666 215.003 175.332 215.005 176.019C215.108 215.458 215.216 254.897 215.331 294.336C215.345 299.067 215.359 303.797 215.372 308.528C215.375 309.469 215.378 310.411 215.381 311.381C215.425 326.651 215.465 341.922 215.505 357.192C215.545 372.848 215.589 388.504 215.637 404.161C215.666 413.829 215.693 423.498 215.715 433.167C215.731 439.788 215.75 446.409 215.773 453.03C215.785 456.856 215.797 460.682 215.803 464.508C215.811 468.645 215.826 472.783 215.842 476.921C215.843 478.144 215.844 479.367 215.845 480.626C215.85 481.726 215.856 482.825 215.861 483.957C215.864 484.914 215.867 485.871 215.869 486.856C215.761 488.982 215.761 488.982 217 490C217.172 491.958 217.337 493.916 217.5 495.875C218.391 502.465 220.395 507.883 223.25 513.875C223.621 514.659 223.991 515.442 224.373 516.25C227.045 521.641 230.291 526.278 234 531C235.021 532.438 236.042 533.875 237.063 535.312C239.404 538.446 241.531 540.132 245 542C247.178 544.074 249.275 546.155 251.234 548.438C253.749 550.663 256.631 552.037 259.625 553.5C260.563 553.963 260.563 553.963 261.52 554.436C266.254 556.733 270.964 558.518 276 560C276.969 560.371 277.939 560.743 278.938 561.125C288.728 563.922 299.351 563.144 309.446 563.134C311.22 563.136 312.994 563.138 314.767 563.141C319.624 563.147 324.481 563.147 329.338 563.145C334.583 563.145 339.828 563.151 345.073 563.155C355.341 563.164 365.609 563.166 375.878 563.167C384.225 563.168 392.572 563.17 400.92 563.173C424.595 563.182 448.27 563.186 471.946 563.185C473.859 563.185 473.859 563.185 475.811 563.185C477.088 563.185 478.365 563.185 479.681 563.185C500.385 563.185 521.088 563.194 541.792 563.208C563.059 563.223 584.326 563.23 605.593 563.229C617.53 563.229 629.466 563.231 641.403 563.242C651.564 563.251 661.725 563.253 671.886 563.247C677.068 563.243 682.25 563.243 687.433 563.252C692.181 563.26 696.929 563.258 701.678 563.25C703.391 563.248 705.104 563.25 706.818 563.255C719.022 563.293 730.465 562.523 742.062 558.438C742.699 558.216 743.335 557.995 743.99 557.768C745.663 557.185 747.332 556.593 749 556C749.99 555.67 750.98 555.34 752 555C752.33 554.01 752.66 553.02 753 552C754.645 551 754.645 551 756.812 550C765.939 545.16 773.758 537.504 778.914 528.582C779.272 528.06 779.631 527.538 780 527C780.66 527 781.32 527 782 527C782.33 525.68 782.66 524.36 783 523C783.66 523 784.32 523 785 523C785.268 522.113 785.536 521.226 785.812 520.312C786.925 517.209 788.102 514.689 790 512C790.66 512 791.32 512 792 512C792.061 511.336 792.121 510.672 792.184 509.988C793.016 501.218 793.016 501.218 794 497C794.66 497 795.32 497 796 497C796.495 337.115 796.495 337.115 797 174C805.785 178.393 814.837 188.233 818.312 197.5C818.539 198.325 818.766 199.15 819 200C819.66 200.33 820.32 200.66 821 201C825.574 208.719 827.486 217.003 827 226C827.66 226 828.32 226 829 226C829.023 263.844 829.041 301.689 829.051 339.533C829.052 344 829.054 348.467 829.055 352.935C829.055 353.824 829.055 354.714 829.056 355.63C829.06 370.033 829.068 384.435 829.077 398.838C829.086 413.615 829.092 428.392 829.094 443.17C829.095 452.289 829.1 461.408 829.108 470.527C829.113 476.779 829.115 483.032 829.114 489.284C829.113 492.892 829.114 496.5 829.119 500.108C829.125 504.02 829.123 507.933 829.12 511.845C829.123 512.984 829.126 514.123 829.129 515.297C829.119 520.641 828.946 525.736 828 531C827.34 531 826.68 531 826 531C825.876 532.702 825.876 532.702 825.75 534.438C825.115 539.453 823.219 543.502 821 548C820.639 548.794 820.278 549.588 819.906 550.406C815.811 559.15 810.72 567.096 803 573C802.257 573.784 801.515 574.567 800.75 575.375C797.152 578.809 793.204 581.366 789 584C787.948 584.66 786.896 585.32 785.812 586C780.133 589.15 774.094 591.766 768 594C767.318 594.26 766.636 594.519 765.933 594.786C756.321 597.922 746.528 597.411 736.539 597.367C734.45 597.37 732.361 597.373 730.272 597.377C724.549 597.386 718.826 597.376 713.102 597.363C706.924 597.352 700.745 597.358 694.567 597.363C683.866 597.368 673.166 597.362 662.466 597.348C651.244 597.333 640.021 597.324 628.799 597.324C628.101 597.324 627.402 597.323 626.682 597.323C623.846 597.323 621.01 597.323 618.174 597.323C592.345 597.322 566.515 597.306 540.686 597.281C516.301 597.258 491.917 597.244 467.532 597.24C466.405 597.24 466.405 597.24 465.255 597.24C462.224 597.239 459.194 597.239 456.164 597.239C454.654 597.238 453.143 597.238 451.633 597.238C450.127 597.238 448.62 597.237 447.114 597.237C423.136 597.234 399.158 597.222 375.18 597.209C368.16 597.206 361.139 597.202 354.119 597.2C339.358 597.195 324.598 597.188 309.837 597.172C303.732 597.165 297.627 597.16 291.523 597.16C285.939 597.159 280.356 597.153 274.773 597.144C272.748 597.142 270.724 597.141 268.699 597.142C265.956 597.143 263.214 597.138 260.471 597.131C259.677 597.133 258.883 597.135 258.065 597.137C254.253 597.121 250.707 596.925 247 596C247 595.34 247 594.68 247 594C245.861 593.693 245.861 593.693 244.699 593.379C243.208 592.975 243.208 592.975 241.688 592.562C240.701 592.296 239.715 592.029 238.699 591.754C236.785 591.219 234.886 590.629 233 590C233 589.34 233 588.68 233 588C232.132 588.086 231.265 588.173 230.371 588.262C226.077 587.928 224.392 586.494 221.063 583.812C220.008 582.976 218.954 582.14 217.898 581.305C216.942 580.544 215.985 579.784 215 579C213.737 578.134 212.468 577.277 211.188 576.438C200.009 568.453 189.4 551.51 186.34 538.109C186.063 535.625 186.063 535.625 186 532C185.34 532 184.68 532 184 532C182.977 525.256 182.857 518.664 182.866 511.85C182.864 510.64 182.862 509.429 182.859 508.182C182.854 504.839 182.853 501.496 182.855 498.153C182.855 494.54 182.849 490.928 182.845 487.316C182.836 480.245 182.834 473.173 182.833 466.102C182.832 460.351 182.83 454.6 182.827 448.849C182.818 432.527 182.814 416.205 182.815 399.883C182.815 399.004 182.815 398.124 182.815 397.219C182.815 396.338 182.815 395.458 182.815 394.551C182.815 380.292 182.806 366.033 182.792 351.774C182.777 337.116 182.77 322.458 182.771 307.801C182.771 299.578 182.769 291.356 182.758 283.133C182.749 276.131 182.747 269.129 182.753 262.127C182.757 258.559 182.757 254.991 182.748 251.423C182.739 247.543 182.745 243.664 182.753 239.785C182.748 238.672 182.742 237.56 182.737 236.414C182.828 215.609 189.979 197.569 204 182C206.579 179.551 209.25 177.254 212 175C212.33 174.67 212.66 174.34 213 174Z" fill="#F9F9F9"/>
<path d="M338.395 248.961C339.591 249.661 339.591 249.661 340.812 250.375C342.236 251.195 342.236 251.195 343.688 252.031C344.781 252.681 345.874 253.331 347 254C348.333 254.782 349.666 255.563 351 256.344C353.903 258.046 356.802 259.755 359.699 261.469C366.361 265.401 373.057 269.3 379.847 273.009C386.07 276.448 386.07 276.448 388 279C388.388 281.65 388.388 281.65 388.404 284.877C388.417 286.085 388.429 287.293 388.442 288.538C388.44 289.844 388.437 291.15 388.434 292.496C388.438 293.85 388.443 295.204 388.449 296.557C388.458 299.395 388.456 302.231 388.446 305.069C388.435 308.702 388.455 312.334 388.484 315.967C388.502 318.763 388.502 321.558 388.496 324.354C388.496 326.344 388.513 328.334 388.53 330.323C388.516 332.14 388.516 332.14 388.502 333.994C388.502 335.06 388.501 336.125 388.501 337.223C387.877 340.683 386.686 341.809 384 344C382.542 344.985 381.047 345.917 379.523 346.797C378.27 347.522 378.27 347.522 376.992 348.262C376.129 348.753 375.265 349.244 374.375 349.75C373.504 350.257 372.632 350.763 371.734 351.285C365.266 355 365.266 355 363 355C362.505 356.485 362.505 356.485 362 358C360.328 358.844 360.328 358.844 358.25 359.5C354.862 360.647 352.051 362.116 349 364C348.34 364 347.68 364 347 364C347 364.66 347 365.32 347 366C346.434 366.277 345.868 366.554 345.285 366.84C344.185 367.383 344.185 367.383 343.062 367.937C342.332 368.297 341.601 368.657 340.848 369.027C339.038 369.864 339.038 369.864 338 371C332.982 371.446 328.554 371.35 324 369C324 368.34 324 367.68 324 367C321.69 366.34 319.38 365.68 317 365C317 364.34 317 363.68 317 363C314.69 362.34 312.38 361.68 310 361C310 360.34 310 359.68 310 359C307.69 358.34 305.38 357.68 303 357C303 356.34 303 355.68 303 355C302.134 354.732 301.267 354.464 300.375 354.187C297.082 353.029 294.089 351.618 291 350C291 349.34 291 348.68 291 348C289.701 347.629 289.701 347.629 288.375 347.25C284.32 345.748 280.011 344.022 278 340C277.894 338.112 277.851 336.22 277.839 334.329C277.829 333.14 277.82 331.952 277.81 330.728C277.803 328.794 277.803 328.794 277.797 326.82C277.791 325.501 277.785 324.181 277.78 322.822C277.769 320.026 277.763 317.23 277.76 314.434C277.754 310.854 277.73 307.274 277.702 303.694C277.683 300.94 277.678 298.186 277.676 295.433C277.672 293.472 277.653 291.511 277.634 289.55C277.637 288.355 277.64 287.161 277.644 285.93C277.64 284.879 277.636 283.828 277.633 282.745C278.051 279.62 278.83 278.253 281 276C282.323 275.628 283.657 275.294 285 275C285.474 274.505 285.949 274.01 286.438 273.5C288.485 271.534 290.237 271.373 293 271C293 270.34 293 269.68 293 269C295.622 267.495 298.247 265.996 300.875 264.5C301.621 264.071 302.368 263.641 303.137 263.199C303.852 262.793 304.568 262.387 305.305 261.969C305.965 261.592 306.624 261.215 307.304 260.826C309 260 309 260 311 260C311 259.34 311 258.68 311 258C313.31 257.34 315.62 256.68 318 256C318 255.34 318 254.68 318 254C319.867 252.985 321.744 251.989 323.625 251C324.669 250.443 325.713 249.886 326.789 249.312C331.044 247.573 334.093 247.235 338.395 248.961Z" fill="#F3F3F3"/>
<path d="M683 414C683 414.66 683 415.32 683 416C683.722 416.103 684.444 416.206 685.188 416.313C688.275 417.067 690.335 418.292 693 420C694.326 420.681 695.657 421.353 697 422C697 422.66 697 423.32 697 424C697.743 424.124 698.485 424.248 699.25 424.375C701.801 424.955 703.727 425.737 706 427C706 427.66 706 428.32 706 429C707.65 429.33 709.3 429.66 711 430C711 430.66 711 431.32 711 432C713.31 432.66 715.62 433.32 718 434C718 434.66 718 435.32 718 436C720.31 436.66 722.62 437.32 725 438C725 438.66 725 439.32 725 440C725.928 440.268 726.856 440.536 727.812 440.813C730.912 441.967 732.091 442.413 734 445C734.361 447.639 734.361 447.639 734.341 450.848C734.34 452.049 734.34 453.25 734.34 454.488C734.324 455.785 734.309 457.082 734.293 458.418C734.287 459.759 734.283 461.1 734.28 462.441C734.269 465.967 734.239 469.493 734.206 473.02C734.175 476.619 734.162 480.219 734.146 483.818C734.114 490.879 734.063 497.94 734 505C733.34 505 732.68 505 732 505C731.01 506.98 731.01 506.98 730 509C729.01 509 728.02 509 727 509C727 509.66 727 510.32 727 511C723.535 511.99 723.535 511.99 720 513C720 513.66 720 514.32 720 515C719.432 515.315 718.863 515.629 718.277 515.953C717.505 516.381 716.733 516.809 715.938 517.25C715.183 517.668 714.429 518.085 713.652 518.516C708.565 521.363 703.522 524.28 698.496 527.234C696.477 528.407 694.457 529.579 692.438 530.75C691.422 531.352 690.407 531.954 689.361 532.574C688.375 533.143 687.388 533.711 686.371 534.297C685.483 534.816 684.596 535.335 683.681 535.87C680.562 537.185 678.355 537.282 675 537C672.445 535.906 672.445 535.906 670.125 534.5C669.344 534.036 668.563 533.572 667.758 533.094C667.178 532.733 666.598 532.372 666 532C666 531.34 666 530.68 666 530C665.29 529.897 664.579 529.794 663.848 529.688C660.642 528.913 658.288 527.649 655.438 526C652.262 524.168 649.567 522.808 646 522C645 521 644 520 643 519C640.711 517.573 638.368 516.296 636 515C636 514.34 636 513.68 636 513C633.69 512.34 631.38 511.68 629 511C629 510.34 629 509.68 629 509C628.361 508.876 627.721 508.753 627.062 508.625C626.382 508.419 625.701 508.213 625 508C623.647 505.293 623.858 503.159 623.839 500.129C623.829 498.898 623.82 497.666 623.81 496.397C623.805 495.048 623.801 493.698 623.797 492.348C623.791 490.968 623.785 489.588 623.78 488.208C623.769 485.313 623.763 482.419 623.76 479.525C623.754 475.814 623.73 472.104 623.702 468.394C623.683 465.543 623.678 462.693 623.676 459.842C623.673 458.474 623.665 457.106 623.652 455.738C623.635 453.826 623.639 451.913 623.644 450C623.64 448.912 623.636 447.823 623.633 446.701C624 444 624 444 625.411 442.198C627.129 440.903 628.848 439.794 630.723 438.738C631.426 438.342 632.129 437.946 632.854 437.537C633.582 437.133 634.311 436.729 635.062 436.313C635.795 435.897 636.528 435.481 637.283 435.053C642.742 432 642.742 432 645 432C645 431.34 645 430.68 645 430C645.592 429.758 646.183 429.515 646.793 429.266C651.447 427.292 655.095 425.254 659 422C662.432 420.326 664.079 420 668 420C668.33 419.01 668.66 418.02 669 417C674.083 413.34 676.694 412.456 683 414Z" fill="#F3F3F3"/>
<path d="M337 83C337 83.66 337 84.32 337 85C339.31 85.66 341.62 86.32 344 87C344 87.66 344 88.32 344 89C345.176 89.2166 345.176 89.2166 346.375 89.4375C349 90 349 90 351 91C351 91.66 351 92.32 351 93C353.31 93.66 355.62 94.32 358 95C358 95.66 358 96.32 358 97C360.31 97.66 362.62 98.32 365 99C365 99.66 365 100.32 365 101C365.668 101.249 366.335 101.498 367.023 101.754C370.675 103.283 374.133 105.079 377.625 106.937C378.293 107.285 378.96 107.632 379.648 107.99C386.063 111.396 386.063 111.396 388 114C388.361 116.752 388.361 116.752 388.341 120.124C388.34 121.385 388.34 122.646 388.34 123.945C388.325 125.322 388.309 126.698 388.293 128.074C388.287 129.482 388.283 130.891 388.28 132.299C388.269 136.003 388.239 139.706 388.206 143.41C388.175 147.191 388.162 150.971 388.146 154.752C388.114 162.168 388.063 169.584 388 177C377.512 183 377.512 183 374 183C374 183.66 374 184.32 374 185C372.866 185.619 371.731 186.237 370.562 186.875C366.618 189.062 362.725 191.329 358.843 193.626C355.904 195.364 352.956 197.089 350.009 198.815C348.244 199.856 346.49 200.917 344.738 201.98C339.152 205.26 335.5 206.897 329 206C326 205 326 205 324 204C324 203.34 324 202.68 324 202C323.121 201.732 322.242 201.464 321.336 201.188C318.147 200.052 315.522 198.718 312.621 196.988C311.623 196.398 310.625 195.809 309.596 195.201C308.033 194.266 308.033 194.266 306.438 193.312C298.828 188.798 291.25 184.404 283.293 180.527C280.471 178.648 279.51 177.027 278 174C277.619 171.23 277.619 171.23 277.612 168.187C277.598 166.47 277.598 166.47 277.583 164.719C277.592 162.878 277.592 162.878 277.602 161C277.599 159.732 277.596 158.463 277.593 157.156C277.591 154.476 277.595 151.797 277.609 149.117C277.626 145.691 277.616 142.265 277.598 138.838C277.585 135.559 277.594 132.279 277.602 129C277.595 127.773 277.589 126.546 277.583 125.281C277.593 124.137 277.602 122.992 277.612 121.812C277.614 120.808 277.617 119.804 277.619 118.77C278.068 115.506 279.059 113.644 281 111C283.812 109.199 283.812 109.199 287 107.687C288.578 106.92 288.578 106.92 290.188 106.137C293 105 293 105 296 105C296.33 104.01 296.66 103.02 297 102C300.535 99.9915 304.206 98.4506 308 97C308 96.34 308 95.68 308 95C310.31 94.34 312.62 93.68 315 93C315 92.34 315 91.68 315 91C317 90 319 89 321 88C322.072 87.4431 323.145 86.8862 324.25 86.3125C327 85 327 85 329 85C329 84.34 329 83.68 329 83C331.862 81.5691 333.934 82.4001 337 83Z" fill="#F4F4F4"/>
<path d="M338 414C338.66 414.33 339.32 414.66 340 415C340 415.66 340 416.32 340 417C340.784 417.144 341.567 417.289 342.375 417.437C345 418 345 418 347 419C347 419.66 347 420.32 347 421C348.65 421.33 350.3 421.66 352 422C352 422.66 352 423.32 352 424C353.114 424.155 353.114 424.155 354.25 424.312C357.23 425.058 358.609 426.132 361 428C362.648 428.712 364.312 429.39 366 430C366 430.66 366 431.32 366 432C368.31 432.66 370.62 433.32 373 434C373 434.66 373 435.32 373 436C375.31 436.66 377.62 437.32 380 438C380 438.66 380 439.32 380 440C381.134 440.289 382.269 440.577 383.438 440.875C385.201 441.432 385.201 441.432 387 442C388.373 444.747 388.12 446.936 388.114 450.01C388.113 451.902 388.113 451.902 388.113 453.832C388.108 455.213 388.103 456.595 388.098 457.977C388.096 459.386 388.094 460.796 388.093 462.205C388.09 465.918 388.08 469.63 388.069 473.342C388.058 477.129 388.054 480.916 388.049 484.703C388.038 492.135 388.021 499.568 388 507C382.25 510 382.25 510 380 510C380 510.66 380 511.32 380 512C376.535 512.99 376.535 512.99 373 514C373 514.66 373 515.32 373 516C370.721 518.92 368.349 519.729 364.875 520.812C360.197 522.433 356.551 524.438 352.523 527.273C349.358 529.439 346.114 531.426 342.812 533.375C342.23 533.733 341.648 534.091 341.048 534.46C337.179 536.717 334.451 537.62 330 537C326.789 535.687 326.789 535.687 323.625 534C322.565 533.443 321.506 532.886 320.414 532.312C319.617 531.879 318.821 531.446 318 531C318 530.34 318 529.68 318 529C317.14 528.742 316.28 528.484 315.395 528.219C311.883 526.958 308.901 525.389 305.688 523.5C304.639 522.892 303.591 522.283 302.512 521.656C300 520 300 520 299 518C297.117 517.097 297.117 517.097 294.938 516.375C294.204 516.115 293.471 515.854 292.715 515.586C292.149 515.393 291.583 515.199 291 515C291 514.34 291 513.68 291 513C288.69 512.34 286.38 511.68 284 511C284 510.34 284 509.68 284 509C283.381 508.732 282.762 508.464 282.125 508.187C280 507 280 507 278 504C277.733 501.426 277.733 501.426 277.709 498.307C277.697 497.139 277.684 495.971 277.671 494.767C277.669 493.505 277.666 492.242 277.664 490.941C277.657 489.646 277.651 488.35 277.644 487.015C277.632 484.272 277.628 481.529 277.629 478.786C277.63 475.274 277.602 471.763 277.568 468.251C277.54 464.898 277.541 461.545 277.539 458.191C277.525 456.931 277.51 455.67 277.496 454.372C277.502 453.2 277.508 452.029 277.514 450.822C277.511 449.792 277.508 448.762 277.506 447.701C278.132 444.279 279.327 443.157 282 441C285.559 439.031 289.203 437.452 293 436C293 435.34 293 434.68 293 434C296.428 431.971 299.707 430.125 303.375 428.562C307.038 426.984 310.427 425.156 313.887 423.184C316 422 316 422 318.082 421.035C320.134 419.927 321.377 418.657 323 417C328.137 413.56 331.821 412.393 338 414Z" fill="#F4F4F4"/>
<path d="M683 248C683.495 249.485 683.495 249.485 684 251C686.181 252.025 686.181 252.025 689 253C694.724 255.648 700.153 258.769 705.562 262C707.001 262.855 708.44 263.709 709.879 264.563C710.913 265.176 710.913 265.176 711.967 265.802C718.383 269.587 718.383 269.587 725 273C725 273.66 725 274.32 725 275C725.784 275.124 726.567 275.248 727.375 275.375C730 276 730 276 732 278C733.119 281.223 733.144 284.324 733.177 287.715C733.196 289.437 733.196 289.437 733.216 291.194C733.223 292.429 733.231 293.665 733.238 294.938C733.246 296.21 733.254 297.482 733.263 298.793C733.277 301.483 733.288 304.172 733.295 306.862C733.306 310.306 733.341 313.749 733.38 317.192C733.413 320.482 733.417 323.772 733.426 327.063C733.443 328.298 733.461 329.533 733.479 330.806C733.476 331.954 733.473 333.102 733.47 334.285C733.476 335.295 733.482 336.304 733.488 337.344C732.865 340.736 731.634 341.845 729 344C726.995 345.308 724.95 346.557 722.875 347.75C721.821 348.364 720.766 348.977 719.68 349.609C717 351 717 351 715 351C714.505 352.485 714.505 352.485 714 354C712.515 354.495 712.515 354.495 711 355C710.67 355.66 710.34 356.32 710 357C707.678 358.068 705.368 359.047 703 360C701.728 360.561 700.457 361.123 699.187 361.688C696 363 696 363 694 363C694 363.66 694 364.32 694 365C692.584 365.793 691.167 366.584 689.75 367.375C688.961 367.816 688.172 368.257 687.359 368.711C686.581 369.136 685.802 369.562 685 370C684.313 370.389 683.626 370.779 682.918 371.18C679.004 372.854 674.896 371.324 671.062 369.938C670.042 369.473 670.042 369.473 669 369C669 368.34 669 367.68 669 367C666.69 366.34 664.38 365.68 662 365C662 364.34 662 363.68 662 363C659.69 362.34 657.38 361.68 655 361C655 360.34 655 359.68 655 359C654.319 358.732 653.639 358.464 652.937 358.188C649.603 356.839 646.303 355.425 643 354C643 353.34 643 352.68 643 352C642.129 351.742 641.257 351.484 640.359 351.219C636.956 349.984 634.276 348.473 631.25 346.5C630.306 345.892 629.363 345.283 628.391 344.656C626 343 626 343 624 341C623.726 338.433 623.726 338.433 623.694 335.145C623.678 333.917 623.662 332.689 623.645 331.423C623.639 330.076 623.633 328.73 623.629 327.383C623.62 326.005 623.611 324.628 623.602 323.25C623.585 320.36 623.577 317.47 623.574 314.58C623.569 310.878 623.531 307.178 623.486 303.476C623.456 300.63 623.449 297.784 623.448 294.937C623.444 293.573 623.431 292.208 623.41 290.844C623.383 288.934 623.391 287.024 623.401 285.114C623.396 284.027 623.39 282.941 623.385 281.821C624 279 624 279 626.33 276.665C629.288 274.82 631.553 274.321 635 274C635.055 273.409 635.109 272.818 635.165 272.209C636.392 268.963 638.344 268.292 641.355 266.652C642.453 266.047 643.551 265.442 644.682 264.818C645.839 264.198 646.995 263.577 648.187 262.938C649.325 262.313 650.463 261.688 651.635 261.045C665.316 253.561 665.316 253.561 670 252C670 251.34 670 250.68 670 250C674.497 247.752 678.079 247.833 683 248Z" fill="#F4F4F4"/>
<path d="M674 83C676.64 83 679.28 83 682 83C682 83.66 682 84.32 682 85C682.784 85.1444 683.567 85.2887 684.375 85.4375C687 86 687 86 689 87C689 87.66 689 88.32 689 89C689.592 89.1818 690.183 89.3635 690.793 89.5508C699.305 92.2585 699.305 92.2585 703 95C703 95.66 703 96.32 703 97C705.31 97.66 707.62 98.32 710 99C710 99.66 710 100.32 710 101C710.83 101.241 711.66 101.482 712.516 101.73C716.559 103.204 720.061 105.12 723.75 107.312C724.422 107.691 725.093 108.069 725.785 108.459C726.428 108.84 727.072 109.221 727.734 109.613C728.314 109.951 728.894 110.29 729.491 110.638C732.235 113.115 732.921 116.213 733.281 119.807C733.301 121.34 733.301 121.34 733.322 122.904C733.341 124.069 733.361 125.234 733.38 126.434C733.389 127.683 733.397 128.932 733.406 130.219C733.418 131.509 733.429 132.8 733.441 134.13C733.462 136.857 733.473 139.583 733.48 142.31C733.491 145.798 733.54 149.283 733.596 152.77C733.643 156.107 733.647 159.444 733.656 162.781C733.681 164.03 733.706 165.279 733.731 166.566C733.688 174.995 733.688 174.995 731.718 177.874C728.62 180.527 724.813 182.244 721.125 183.938C712.786 187.889 704.919 192.651 697 197.377C695.995 197.973 694.989 198.569 693.953 199.184C693.047 199.726 692.141 200.268 691.208 200.826C689 202 689 202 687 202C686.505 203.485 686.505 203.485 686 205C682.261 207.493 679.33 207.69 675 207C672.077 205.817 669.517 204.209 666.875 202.5C665.39 201.582 663.904 200.666 662.418 199.75C661.681 199.289 660.944 198.827 660.185 198.352C656.899 196.319 653.549 194.405 650.187 192.5C648.538 191.556 648.538 191.556 646.855 190.594C645.167 189.651 643.46 188.739 641.719 187.898C640 187 640 187 638.312 185.125C635.493 182.534 632.674 181.467 629.121 180.125C626.501 178.735 625.535 177.539 624 175C623.612 172.23 623.612 172.23 623.596 169.01C623.583 167.802 623.571 166.594 623.557 165.349C623.56 164.048 623.563 162.747 623.566 161.406C623.562 160.054 623.557 158.702 623.551 157.349C623.542 154.518 623.544 151.687 623.554 148.856C623.565 145.231 623.545 141.607 623.516 137.982C623.498 135.19 623.498 132.399 623.504 129.607C623.504 127.622 623.487 125.636 623.47 123.651C623.479 122.443 623.489 121.235 623.498 119.99C623.498 118.928 623.499 117.865 623.499 116.77C624.123 113.322 625.327 112.187 628 110C630.563 108.235 633.281 106.762 636 105.25C636.712 104.839 637.423 104.428 638.156 104.004C638.847 103.616 639.538 103.228 640.25 102.828C640.874 102.477 641.498 102.125 642.141 101.763C644 101 644 101 648 101C648.33 100.01 648.66 99.02 649 98C649.66 98 650.32 98 651 98C651 97.34 651 96.68 651 96C653 95 655 94 657 93C657.696 92.6404 658.392 92.2807 659.109 91.9102C659.816 91.5479 660.522 91.1857 661.25 90.8125C661.915 90.4683 662.58 90.1241 663.266 89.7695C665 89 665 89 667 89C667 88.34 667 87.68 667 87C669.31 86.34 671.62 85.68 674 85C674 84.34 674 83.68 674 83Z" fill="#F5F5F5"/>
<path d="M468 257C477.744 256.977 487.488 256.959 497.233 256.948C501.757 256.943 506.281 256.936 510.806 256.925C515.169 256.914 519.533 256.908 523.897 256.905C525.564 256.903 527.231 256.9 528.899 256.894C531.229 256.887 533.558 256.886 535.888 256.886C536.582 256.883 537.276 256.879 537.992 256.876C542.772 256.886 542.772 256.886 545 258C545 258.66 545 259.32 545 260C545.557 260.227 546.114 260.454 546.688 260.688C554.443 265.089 555.951 271.599 558.219 279.598C558.96 281.876 559.87 283.892 561 286C561.66 286 562.32 286 563 286C563 286.66 563 287.32 563 288C563.99 288 564.98 288 566 288C568.603 291.374 569.363 293.769 569 298C565.294 297.195 561.847 295.862 558.312 294.5C557.154 294.057 555.995 293.613 554.801 293.156C552 292 552 292 551 291C550.731 289.065 550.485 287.127 550.25 285.188C549.518 280.277 549.518 280.277 546.562 276.375C545.717 275.921 544.871 275.468 544 275C543.01 274.34 542.02 273.68 541 273C538.398 272.858 535.909 272.812 533.312 272.875C532.611 272.884 531.909 272.893 531.186 272.902C529.457 272.926 527.728 272.962 526 273C526 273.66 526 274.32 526 275C524.603 276.118 523.198 277.227 521.77 278.305C519.858 279.959 519.858 279.959 518.699 282.445C516.785 285.839 515.192 287.718 512 290C505.708 291.637 499.057 291.268 492.61 291.084C489.507 291 486.413 291.002 483.309 291.016C481.32 290.995 479.332 290.969 477.344 290.938C476.426 290.937 475.508 290.937 474.562 290.936C467.867 290.693 463.757 288.731 459 284C455.652 279.939 455.26 277.124 455.379 271.902C456.488 266.721 459.908 263.211 464 260C466.266 259.258 466.266 259.258 468 259C468 258.34 468 257.68 468 257Z" fill="#0C0C0C"/>
<path d="M442 317C445.821 318.106 449.102 319.586 452.562 321.5C456.701 323.67 460.173 324.403 464.812 324.875C470.5 325.575 470.5 325.575 472.762 327.496C473.977 329.279 474.979 331.101 476 333C477.626 334.707 479.291 336.377 481 338C481.804 338.846 482.609 339.691 483.438 340.562C488.725 345.593 492.198 347.445 499.438 347.434C505.629 346.386 509.214 343.105 513.25 338.5C514.101 337.541 514.952 336.582 515.828 335.594C518.073 333.008 518.073 333.008 520 330C520.66 330 521.32 330 522 330C522.66 328.68 523.32 327.36 524 326C531.92 326 539.84 326 548 326C548 326.66 548 327.32 548 328C548.598 328.206 549.196 328.412 549.812 328.625C553.045 330.657 553.733 332.388 555 336C555.685 342.226 555.731 347.726 552 353C547.001 357.624 543.07 358.152 536.487 358.177C535.342 358.187 535.342 358.187 534.175 358.197C531.65 358.217 529.126 358.228 526.602 358.238C525.308 358.244 525.308 358.244 523.988 358.251C519.424 358.271 514.86 358.286 510.296 358.295C505.582 358.306 500.869 358.341 496.156 358.38C492.531 358.406 488.905 358.415 485.28 358.418C483.542 358.423 481.805 358.435 480.067 358.453C477.635 358.478 475.204 358.477 472.772 358.47C472.056 358.483 471.34 358.496 470.602 358.509C465.774 358.459 463.438 357.341 460 354C459.127 353.252 459.127 353.252 458.236 352.49C455.652 349.375 455.818 344.285 455.359 340.336C454.6 335.042 453.343 332.463 449 329C447.928 328.402 446.855 327.804 445.75 327.188C442.716 324.774 442.571 324.372 442.125 320.75C442.084 319.513 442.043 318.275 442 317Z" fill="#070707"/>
<path d="M375 460C375 473.2 375 486.4 375 500C372.03 501.32 369.06 502.64 366 504C364.515 504.873 363.047 505.778 361.625 506.75C358.98 508.557 358.321 509 355 509C355 509.66 355 510.32 355 511C354.385 511.338 353.77 511.675 353.137 512.023C352.328 512.469 351.52 512.915 350.687 513.375C349.887 513.816 349.086 514.257 348.262 514.711C346.465 515.735 344.721 516.853 343 518C342.01 518 341.02 518 340 518C339.802 512.395 339.657 506.792 339.561 501.185C339.52 499.279 339.466 497.372 339.396 495.467C339.299 492.724 339.254 489.983 339.219 487.238C339.177 486.389 339.136 485.54 339.094 484.665C339.092 482.2 339.181 480.328 340 478C343.247 474.838 346.446 473 351 473C351 472.34 351 471.68 351 471C353.97 470.01 356.94 469.02 360 468C360 467.34 360 466.68 360 466C361.934 464.993 363.872 463.994 365.812 463C366.891 462.443 367.97 461.886 369.082 461.312C372 460 372 460 375 460Z" fill="#0B0B0B"/>
<path d="M375 294C375 307.53 375 321.06 375 335C372.36 335.99 369.72 336.98 367 338C364.906 339.263 364.906 339.263 363.312 340.625C360.59 342.705 358.487 343.683 355 344C354.67 344.99 354.34 345.98 354 347C351.68 348.031 349.346 349.029 347 350C346.443 350.557 345.886 351.114 345.312 351.688C344.879 352.121 344.446 352.554 344 353C342.68 353 341.36 353 340 353C339.926 347.501 339.871 342.002 339.835 336.502C339.82 334.631 339.8 332.76 339.774 330.889C339.737 328.201 339.72 325.513 339.707 322.824C339.692 321.987 339.676 321.149 339.66 320.286C339.658 314.419 339.658 314.419 341.396 312.286C343.254 310.796 344.714 310.571 347 310C347.634 309.345 347.634 309.345 348.281 308.676C352.13 304.923 357.344 302.621 362 300C363.044 299.41 364.088 298.819 365.164 298.211C372.728 294 372.728 294 375 294Z" fill="#080808"/>
<path d="M375 129C375 142.2 375 155.4 375 169C364.5 175 364.5 175 361 175C361 175.66 361 176.32 361 177C360.182 177.437 360.182 177.437 359.348 177.883C354.329 180.611 349.601 183.551 344.945 186.863C343 188 343 188 340 188C339.752 182.414 339.571 176.83 339.451 171.24C339.4 169.34 339.332 167.441 339.246 165.542C338.543 149.758 338.543 149.758 342.165 145.388C345.845 143.112 348.663 142 353 142C353 141.34 353 140.68 353 140C354.072 139.484 355.145 138.969 356.25 138.438C361.139 136.011 365.788 133.206 370.461 130.391C373 129 373 129 375 129Z" fill="#080808"/>
<path d="M464 460C467.846 460.681 470.202 461.572 473.375 463.875C477.144 466.501 480.718 468.36 485 470C485 470.66 485 471.32 485 472C485.784 472.144 486.567 472.289 487.375 472.438C490 473 490 473 492 474C492 474.66 492 475.32 492 476C492.784 476.144 493.567 476.289 494.375 476.438C497 477 497 477 499 478C499 491.2 499 504.4 499 518C496.03 517.01 493.06 516.02 490 515C490 514.34 490 513.68 490 513C487.69 512.34 485.38 511.68 483 511C483 510.34 483 509.68 483 509C482.031 508.794 481.061 508.588 480.062 508.375C475.075 506.973 471.171 503.975 467 501C466.01 500.34 465.02 499.68 464 499C463.733 496.02 463.652 493.251 463.707 490.273C463.711 489.411 463.716 488.548 463.72 487.659C463.737 484.897 463.774 482.136 463.812 479.375C463.828 477.505 463.841 475.635 463.854 473.766C463.887 469.177 463.938 464.589 464 460Z" fill="#040404"/>
<path d="M637 295C641.797 295.888 644.846 297.475 649 300C649 300.66 649 301.32 649 302C651.31 302.66 653.62 303.32 656 304C656 304.66 656 305.32 656 306C657.093 306.172 657.093 306.172 658.207 306.348C661.074 307.017 663.141 307.981 665.688 309.438C666.455 309.869 667.222 310.301 668.012 310.746C670 312 670 312 672 314C672.175 317.013 672.231 319.933 672.195 322.945C672.193 323.83 672.19 324.715 672.187 325.627C672.176 328.46 672.15 331.292 672.125 334.125C672.115 336.043 672.106 337.961 672.098 339.879C672.076 344.586 672.041 349.293 672 354C670.68 353.67 669.36 353.34 668 353C668 352.34 668 351.68 668 351C667.319 350.732 666.639 350.464 665.938 350.188C662.603 348.839 659.303 347.425 656 346C656 345.34 656 344.68 656 344C655.151 343.729 654.302 343.459 653.427 343.18C640.598 338.763 640.598 338.763 637 334C634.861 327.644 635.783 320.579 636.188 314C636.253 312.158 636.312 310.315 636.365 308.473C636.508 303.976 636.732 299.491 637 295Z" fill="#0C0C0C"/>
<path d="M682 263C684.872 264.384 687.552 265.95 690 268C690 268.66 690 269.32 690 270C690.969 270.206 691.939 270.413 692.938 270.625C697.133 271.806 700.303 274.055 703.844 276.535C706.468 278.318 709.124 279.672 712 281C711 284 711 284 708.438 285.375C706.736 286.179 706.736 286.179 705 287C701.583 289.007 698.209 291.057 695.082 293.496C691.989 295.73 688.588 297.198 685.145 298.816C682.856 299.815 682.856 299.815 682 302C680.02 302 678.04 302 676 302C676 301.34 676 300.68 676 300C673.69 299.34 671.38 298.68 669 298C669 297.34 669 296.68 669 296C666.69 295.34 664.38 294.68 662 294C662 293.34 662 292.68 662 292C659.69 291.34 657.38 290.68 655 290C655 289.34 655 288.68 655 288C653.35 287.67 651.7 287.34 650 287C650 286.34 650 285.68 650 285C648.02 284.34 646.04 283.68 644 283C644 282.34 644 281.68 644 281C644.731 280.592 645.462 280.183 646.216 279.762C648.946 278.237 651.676 276.71 654.406 275.183C656.162 274.202 657.918 273.221 659.674 272.24C660.786 271.618 661.897 270.996 663.043 270.355C664.064 269.785 665.085 269.214 666.137 268.626C668.784 267.123 671.391 265.567 674 264C676.933 262.534 678.72 262.636 682 263Z" fill="#0C0C0C"/>
<path d="M292 460C295.752 460.841 298.568 462.33 301.902 464.273C303.609 465.263 303.609 465.263 305.35 466.273C306.546 466.974 307.742 467.674 308.938 468.375C310.129 469.068 311.321 469.761 312.514 470.453C315.68 472.295 318.843 474.142 322 476C323.409 476.572 323.409 476.572 324.847 477.156C327 479 327 479 327.423 480.807C327.582 483.236 327.561 485.61 327.488 488.043C327.481 488.927 327.474 489.81 327.467 490.721C327.439 493.544 327.376 496.365 327.313 499.188C327.287 501.101 327.265 503.014 327.244 504.928C327.189 509.619 327.103 514.309 327 519C323.647 517.691 320.674 516.29 317.625 514.375C312.61 511.306 307.47 508.535 302.266 505.804C300.506 504.878 298.753 503.94 297 503C296.115 502.654 295.229 502.307 294.317 501.951C292 500 292 500 291.566 498.186C291.419 495.761 291.439 493.385 291.512 490.957C291.519 490.073 291.526 489.19 291.533 488.279C291.561 485.456 291.624 482.635 291.688 479.812C291.713 477.899 291.735 475.986 291.756 474.072C291.811 469.381 291.897 464.691 292 460Z" fill="#0A0A0A"/>
<path d="M720 129C720 142.2 720 155.4 720 169C718.02 169.99 716.04 170.98 714 172C712.969 172.763 711.937 173.526 710.875 174.312C706.825 177.305 702.394 179.395 697.867 181.57C694.976 182.96 694.976 182.96 692.258 184.68C690 186 690 186 688 186C688 186.66 688 187.32 688 188C687.01 188 686.02 188 685 188C684.752 182.414 684.571 176.83 684.451 171.24C684.4 169.34 684.332 167.441 684.246 165.542C683.543 149.757 683.543 149.757 687.082 145.491C689.689 143.919 692.104 142.915 695 142C695.977 141.455 696.954 140.909 697.961 140.348C698.758 139.924 699.554 139.499 700.375 139.062C705.527 136.292 710.552 133.333 715.566 130.32C718 129 718 129 720 129Z" fill="#0B0B0B"/>
<path d="M720 460C720.074 465.518 720.129 471.035 720.165 476.553C720.18 478.431 720.2 480.309 720.226 482.187C720.263 484.882 720.28 487.578 720.293 490.273C720.308 491.116 720.324 491.959 720.34 492.827C720.341 495.193 720.341 495.193 720 499C717 501 717 501 714 501C714 501.66 714 502.32 714 503C711.353 504.461 710.106 505 707 505C707 505.66 707 506.32 707 507C704.088 508.654 701.169 510.296 698.25 511.938C697.425 512.406 696.6 512.875 695.75 513.357C694.951 513.805 694.152 514.253 693.328 514.715C692.595 515.129 691.862 515.542 691.106 515.969C689 517 689 517 685 518C685 504.8 685 491.6 685 478C689.95 475.36 694.9 472.72 700 470C702.669 468.336 705.336 466.671 708 465C708.66 465 709.32 465 710 465C710 464.34 710 463.68 710 463C716.625 460 716.625 460 720 460Z" fill="#060606"/>
<path d="M292 130C294.813 130.667 297.128 131.466 299.672 132.848C300.336 133.205 301 133.563 301.684 133.932C302.366 134.305 303.047 134.678 303.75 135.062C304.447 135.44 305.145 135.817 305.863 136.205C307.578 137.133 309.289 138.066 311 139C311 139.66 311 140.32 311 141C313.475 141.495 313.475 141.495 316 142C316 142.66 316 143.32 316 144C317.052 144.155 317.052 144.155 318.125 144.312C321 145 321 145 327 148C327 161.2 327 174.4 327 188C323.061 187.015 320.372 185.692 316.844 183.727C316.26 183.402 315.675 183.078 315.074 182.743C313.842 182.058 312.612 181.37 311.382 180.681C309.509 179.63 307.632 178.588 305.754 177.547C299.053 173.811 299.053 173.811 296 172C295.221 171.614 294.442 171.228 293.64 170.83C290.899 167.771 291.513 164.07 291.609 160.176C291.615 159.314 291.621 158.453 291.627 157.565C291.649 154.814 291.699 152.064 291.75 149.312C291.77 147.447 291.788 145.582 291.805 143.717C291.849 139.144 291.918 134.572 292 130Z" fill="#0E0E0E"/>
<path d="M292 295C296.554 295.911 298.278 296.608 302 299C306.447 301.597 306.447 301.597 311 304C311 304.66 311 305.32 311 306C311.717 306.103 312.433 306.206 313.172 306.312C316.321 307.078 318.505 308.291 321.25 310C322.557 310.804 322.557 310.804 323.891 311.625C326 313 326 313 327 314C327.089 316.957 327.115 319.891 327.098 322.848C327.096 323.734 327.095 324.621 327.093 325.534C327.088 328.377 327.075 331.22 327.062 334.062C327.057 335.985 327.053 337.908 327.049 339.83C327.038 344.553 327.021 349.277 327 354C326.34 354 325.68 354 325 354C325 353.34 325 352.68 325 352C322.69 351.34 320.38 350.68 318 350C318 349.34 318 348.68 318 348C315.69 347.34 313.38 346.68 311 346C311 345.34 311 344.68 311 344C310.175 343.752 309.35 343.505 308.5 343.25C297.696 339.391 297.696 339.391 296 336C294.68 335.34 293.36 334.68 292 334C292 321.13 292 308.26 292 295Z" fill="#0A0A0A"/>
<path d="M637 460C641.75 460.875 641.75 460.875 644 462C644 462.66 644 463.32 644 464C644.661 464.238 645.323 464.477 646.004 464.723C649.822 466.35 653.342 468.371 656.937 470.438C661.572 473.09 666.221 475.614 671 478C672 479 672 479 672.114 482.785C672.113 484.473 672.108 486.16 672.098 487.848C672.096 488.734 672.095 489.621 672.093 490.534C672.088 493.377 672.075 496.22 672.062 499.062C672.057 500.985 672.053 502.908 672.049 504.83C672.038 509.553 672.02 514.277 672 519C668.325 518.268 666.077 516.648 663.082 514.41C659.29 511.842 655.133 509.954 651 508C651 507.34 651 506.68 651 506C648.69 505.34 646.38 504.68 644 504C644 503.34 644 502.68 644 502C643.031 501.691 642.061 501.381 641.062 501.062C638 500 638 500 637 499C636.911 496.116 636.885 493.255 636.902 490.371C636.904 489.507 636.905 488.643 636.907 487.752C636.912 484.981 636.925 482.209 636.937 479.438C636.942 477.563 636.947 475.689 636.951 473.814C636.962 469.21 636.979 464.605 637 460Z" fill="#080808"/>
<path d="M330 428C337.292 428.071 342.806 431.951 348.938 435.562C350.003 436.178 351.068 436.794 352.166 437.428C354.783 438.942 357.394 440.466 360 442C360 442.66 360 443.32 360 444C361.65 444.33 363.3 444.66 365 445C365.495 446.98 365.495 446.98 366 449C365.49 449.28 364.979 449.559 364.453 449.848C358.734 453.001 353.107 456.289 347.504 459.645C345 461 345 461 343 461C342.67 461.99 342.34 462.98 342 464C338.25 466.893 335.67 467.398 331 467C328.147 465.731 328.147 465.731 325.234 463.973C324.18 463.346 323.125 462.718 322.039 462.072C320.411 461.077 320.411 461.077 318.75 460.062C316.578 458.762 314.406 457.461 312.234 456.16C311.278 455.579 310.321 454.998 309.335 454.399C307.086 453.011 307.086 453.011 305 452C305 451.34 305 450.68 305 450C303.68 449.34 302.36 448.68 301 448C302.375 446 302.375 446 304 444C304.66 444 305.32 444 306 444C306 443.34 306 442.68 306 442C306.692 441.611 307.383 441.223 308.095 440.823C311.21 439.071 314.324 437.317 317.438 435.562C319.07 434.645 319.07 434.645 320.736 433.709C321.771 433.126 322.805 432.542 323.871 431.941C324.829 431.402 325.788 430.863 326.775 430.307C328.899 429.185 328.899 429.185 330 428Z" fill="#090909"/>
<path d="M637 129C641 131 645 133 649 135C649 135.66 649 136.32 649 137C649.784 137.144 650.567 137.289 651.375 137.438C654 138 654 138 656 139C656 139.66 656 140.32 656 141C656.681 141.083 657.361 141.165 658.062 141.25C661.875 142.223 664.641 143.958 668 146C668 146.66 668 147.32 668 148C669.32 148.33 670.64 148.66 672 149C672 161.87 672 174.74 672 188C667.941 187.188 666.174 186.753 662.863 184.75C661.75 184.085 661.75 184.085 660.615 183.406C659.855 182.942 659.095 182.478 658.312 182C656.788 181.083 655.263 180.166 653.738 179.25C653.068 178.843 652.398 178.435 651.708 178.016C649.976 176.958 649.976 176.958 648 176C648 175.34 648 174.68 648 174C645.69 173.34 643.38 172.68 641 172C641 171.34 641 170.68 641 170C639.68 169.67 638.36 169.34 637 169C637 155.8 637 142.6 637 129Z" fill="#070707"/>
<path d="M464 129C465.32 129.33 466.64 129.66 468 130C468 130.66 468 131.32 468 132C468.969 132.206 469.939 132.412 470.938 132.625C475.124 133.8 478.248 136.059 481.777 138.535C484.733 140.483 487.702 141.737 491 143C491 143.66 491 144.32 491 145C491.763 145.289 492.526 145.577 493.313 145.875C496 147 496 147 499 149C499.267 151.98 499.348 154.749 499.293 157.727C499.289 158.589 499.284 159.452 499.28 160.341C499.263 163.103 499.226 165.864 499.188 168.625C499.172 170.495 499.159 172.365 499.146 174.234C499.113 178.823 499.062 183.411 499 188C494.219 187.227 494.219 187.227 492.25 185.188C489.502 182.516 486.766 181.414 483.262 179.949C480.439 178.764 477.723 177.397 475 176C475 175.34 475 174.68 475 174C474.113 173.732 473.226 173.464 472.313 173.188C466.423 171.076 466.423 171.076 464 169C463.281 165.99 463.419 163.036 463.512 159.957C463.519 159.073 463.526 158.19 463.533 157.279C463.561 154.456 463.624 151.635 463.688 148.812C463.713 146.899 463.735 144.986 463.756 143.072C463.811 138.381 463.897 133.691 464 129Z" fill="#080808"/>
<path d="M720 295C720 307.87 720 320.74 720 334C716 336 716 336 713 336C713 336.66 713 337.32 713 338C711.623 338.779 711.623 338.779 710.219 339.574C698.68 344.958 698.68 344.958 690 353C688.35 353 686.7 353 685 353C685 339.8 685 326.6 685 313C687.31 312.01 689.62 311.02 692 310C692.495 309.505 692.99 309.01 693.5 308.5C695 307 695 307 698.375 305.562C701.845 304.067 704.095 302.355 707 300C708.329 299.648 709.662 299.312 711 299C712.02 298.021 713.021 297.021 714 296C717 295 717 295 720 295Z" fill="#060606"/>
<path d="M338 99C340.363 100.397 342.577 101.902 344.789 103.527C347.112 105.075 349.383 106.049 352 107C352 107.66 352 108.32 352 109C352.717 109.278 353.433 109.557 354.172 109.844C356.922 110.968 359.583 112.19 362.25 113.5C363.121 113.923 363.993 114.346 364.891 114.781C367 116 367 116 368 118C367.01 118 366.02 118 365 118C364.505 119.485 364.505 119.485 364 121C362.312 121.816 362.312 121.816 360 122.562C353.789 124.846 348.338 128.209 342.715 131.647C342.005 132.078 341.294 132.509 340.562 132.953C339.605 133.543 339.605 133.543 338.629 134.146C337 135 337 135 335 135C335 135.66 335 136.32 335 137C333.68 137 332.36 137 331 137C331 136.34 331 135.68 331 135C328.69 134.34 326.38 133.68 324 133C324 132.34 324 131.68 324 131C322.928 130.732 321.855 130.464 320.75 130.187C317.373 129.118 315.662 128.187 313 126C312.01 125.67 311.02 125.34 310 125C310 124.34 310 123.68 310 123C309.113 122.732 308.226 122.464 307.312 122.187C304.231 121.083 301.738 119.772 299 118C299.495 116.515 299.495 116.515 300 115C303.562 113.812 303.562 113.812 307 113C307 112.34 307 111.68 307 111C308.65 110.67 310.3 110.34 312 110C312 109.34 312 108.68 312 108C318 105 318 105 320.004 104.016C320.683 103.68 321.363 103.345 322.062 103C322.743 102.666 323.424 102.332 324.125 101.988C326.174 100.96 326.174 100.96 328.562 99.1875C332.2 97.4156 334.122 97.9013 338 99Z" fill="#0A0A0A"/>
<path d="M682 429C682.66 429.33 683.32 429.66 684 430C684 430.66 684 431.32 684 432C684.726 432.112 685.451 432.224 686.199 432.34C689.126 433.03 691.223 434.055 693.812 435.563C694.603 436.018 695.393 436.473 696.207 436.941C696.799 437.291 697.39 437.64 698 438C698 438.66 698 439.32 698 440C698.784 440.144 699.567 440.289 700.375 440.438C703 441 703 441 705 442C705 442.66 705 443.32 705 444C705.784 444.144 706.567 444.289 707.375 444.438C710 445 710 445 712 446C712 446.99 712 447.98 712 449C710.066 450.007 708.128 451.006 706.188 452C705.109 452.557 704.03 453.114 702.918 453.688C700 455 700 455 697 455C697 455.66 697 456.32 697 457C694.467 458.516 691.925 460.013 689.375 461.5C688.662 461.929 687.949 462.359 687.215 462.801C682.986 465.245 680.026 466.65 675 466C672.125 465 672.125 465 670 464C670 463.34 670 462.68 670 462C669.154 461.753 668.309 461.505 667.438 461.25C663.616 459.86 660.481 458.089 657 456C657 455.34 657 454.68 657 454C653.7 453.01 650.4 452.02 647 451C647 450.34 647 449.68 647 449C646.01 448.67 645.02 448.34 644 448C644 447.34 644 446.68 644 446C645.956 444.995 647.915 443.996 649.875 443C650.966 442.443 652.056 441.886 653.18 441.313C656 440 656 440 658 440C658 439.34 658 438.68 658 438C659.956 436.995 661.915 435.996 663.875 435C664.966 434.443 666.056 433.886 667.18 433.313C670 432 670 432 672 432C672 431.34 672 430.68 672 430C675.583 427.657 677.92 428.024 682 429Z" fill="#080808"/>
<path d="M512 430C512 430.66 512 431.32 512 432C512.784 432.144 513.567 432.289 514.375 432.438C517 433 517 433 519 434C519 434.66 519 435.32 519 436C521.31 436.66 523.62 437.32 526 438C526 438.66 526 439.32 526 440C527.031 440.227 528.062 440.454 529.125 440.688C533.344 441.865 535.815 444.048 539 447C537.625 448.5 537.625 448.5 536 450C535.34 450 534.68 450 534 450C534 450.66 534 451.32 534 452C532.044 453.005 530.085 454.004 528.125 455C527.034 455.557 525.944 456.114 524.82 456.688C522 458 522 458 520 458C520 458.66 520 459.32 520 460C517.69 460.66 515.38 461.32 513 462C513 462.66 513 463.32 513 464C509.579 466.105 506.98 466.325 503 466C500.125 465 500.125 465 498 464C498 463.34 498 462.68 498 462C497.361 461.753 496.721 461.505 496.062 461.25C492 459.592 488.003 457.796 484 456C484 455.34 484 454.68 484 454C481.69 453.34 479.38 452.68 477 452C477 451.34 477 450.68 477 450C475.68 449.67 474.36 449.34 473 449C473.371 446.59 473.581 445.344 475.503 443.767C476.136 443.43 476.769 443.093 477.422 442.746C478.466 442.177 478.466 442.177 479.531 441.596C480.263 441.214 480.996 440.831 481.75 440.438C483.183 439.666 484.615 438.894 486.047 438.121C486.728 437.758 487.409 437.395 488.111 437.021C491.222 435.34 494.213 433.615 497 431.438C501.999 427.844 506.36 427.18 512 430Z" fill="#080808"/>
<path d="M676 98C680.852 98.4411 684.765 100.778 689 103C690.498 103.753 691.998 104.503 693.5 105.25C694.655 105.827 695.81 106.405 697 107C697 107.66 697 108.32 697 109C699.31 109.66 701.62 110.32 704 111C704 111.66 704 112.32 704 113C704.743 113.124 705.485 113.248 706.25 113.375C708.801 113.955 710.727 114.737 713 116C713 116.66 713 117.32 713 118C712.325 118.326 711.649 118.652 710.953 118.988C709.615 119.644 709.615 119.644 708.25 120.312C707.368 120.742 706.487 121.171 705.578 121.613C702.993 122.92 702.993 122.92 700.844 124.625C698.608 126.292 696.733 126.62 694 127C693.505 128.485 693.505 128.485 693 130C691.32 130.79 689.632 131.569 687.898 132.234C685.751 133.051 685.751 133.051 682.938 134.75C679.31 136.294 677.803 135.91 674 135C671.842 134.052 669.715 133.029 667.625 131.938C666.565 131.39 665.506 130.842 664.414 130.277C663.219 129.645 663.219 129.645 662 129C662 128.34 662 127.68 662 127C661.141 126.745 660.283 126.49 659.398 126.227C655.843 124.943 652.863 123.318 649.625 121.375C648.565 120.743 647.506 120.112 646.414 119.461C645.219 118.738 645.219 118.738 644 118C645 115 645 115 647.652 113.395C648.736 112.872 649.821 112.35 650.938 111.812C652.019 111.283 653.101 110.753 654.215 110.207C657 109 657 109 659 109C659 108.34 659 107.68 659 107C659.784 106.608 660.567 106.216 661.375 105.812C661.913 105.543 662.45 105.274 663.004 104.996C664.531 104.234 666.06 103.477 667.59 102.723C668.488 102.278 669.387 101.833 670.312 101.375C671.175 100.95 672.037 100.524 672.926 100.086C674.933 99.1666 674.933 99.1666 676 98Z" fill="#090909"/>
<path d="M338 264C338 264.66 338 265.32 338 266C340.97 266.99 343.94 267.98 347 269C347 269.66 347 270.32 347 271C347.664 271.245 348.328 271.49 349.012 271.742C352.744 273.313 356.254 275.198 359.812 277.125C360.505 277.498 361.198 277.87 361.912 278.254C363.609 279.167 365.305 280.083 367 281C366.505 282.485 366.505 282.485 366 284C365.01 284 364.02 284 363 284C362.505 285.485 362.505 285.485 362 287C360.328 287.844 360.328 287.844 358.25 288.5C354.862 289.647 352.051 291.116 349 293C348.34 293 347.68 293 347 293C347 293.66 347 294.32 347 295C342.892 298.779 336.607 301.86 331 302C328.478 300.868 326.335 299.511 324 298C324 297.34 324 296.68 324 296C322.35 295.67 320.7 295.34 319 295C319 294.34 319 293.68 319 293C318.361 292.752 317.721 292.505 317.062 292.25C313 290.592 309.003 288.796 305 287C305 286.34 305 285.68 305 285C302.525 284.01 302.525 284.01 300 283C301.173 279.481 301.721 279.307 304.859 277.625C305.646 277.197 306.432 276.769 307.242 276.328C308.07 275.89 308.897 275.452 309.75 275C311.37 274.126 312.99 273.251 314.609 272.375C315.755 271.759 315.755 271.759 316.924 271.13C320.135 269.382 323.221 267.596 326.125 265.375C330.171 262.408 333.281 263.199 338 264Z" fill="#0A0A0A"/>
<path d="M510 99C510 99.66 510 100.32 510 101C510.722 101.103 511.444 101.206 512.188 101.313C515.314 102.077 517.297 103.262 520 105C521.011 105.578 522.021 106.155 523.062 106.75C523.643 107.083 524.223 107.415 524.82 107.758C526.581 108.761 528.348 109.753 530.117 110.742C531.761 111.674 531.761 111.674 533.438 112.625C534.488 113.215 535.539 113.806 536.621 114.414C537.406 114.937 538.191 115.461 539 116C539 116.66 539 117.32 539 118C537.02 118.66 535.04 119.32 533 120C533 120.66 533 121.32 533 122C530.69 122.66 528.38 123.32 526 124C526 124.66 526 125.32 526 126C524.339 126.949 522.678 127.898 521.016 128.844C519.688 129.606 518.364 130.376 517.047 131.156C512.213 134 512.213 134 510 134C510 134.66 510 135.32 510 136C504.25 137.125 504.25 137.125 502 136C502 135.34 502 134.68 502 134C500.35 133.67 498.7 133.34 497 133C497 132.34 497 131.68 497 131C494.03 130.01 491.06 129.02 488 128C488 127.34 488 126.68 488 126C486.35 125.67 484.7 125.34 483 125C483 124.34 483 123.68 483 123C480.69 122.34 478.38 121.68 476 121C476 120.34 476 119.68 476 119C474.68 118.67 473.36 118.34 472 118C472.495 116.515 472.495 116.515 473 115C474.812 114.121 474.812 114.121 477 113.438C479.145 112.793 479.145 112.793 481 112C481.33 111.34 481.66 110.68 482 110C483.645 108.957 483.645 108.957 485.812 107.813C488.622 106.32 491.333 104.789 494.02 103.082C503.833 96.8977 503.833 96.8977 510 99Z" fill="#080808"/>
<path d="M547 460C549.706 494.322 549.706 494.322 545.364 501.829C540.782 506.21 534.406 509 528 509C527.67 509.99 527.34 510.98 527 512C525.119 512.765 523.232 513.526 521.301 514.156C518.413 515.215 515.742 516.611 513 518C512.802 512.395 512.657 506.792 512.561 501.185C512.52 499.279 512.466 497.372 512.396 495.467C512.299 492.724 512.254 489.983 512.219 487.238C512.177 486.389 512.136 485.54 512.094 484.665C512.092 482.202 512.184 480.327 513 478C515.925 475.153 519.208 473.436 523.165 472.474C525.133 472.131 525.133 472.131 526.562 470.438C527.037 469.963 527.511 469.489 528 469C528.99 469 529.98 469 531 469C531 468.34 531 467.68 531 467C532.747 466.015 534.498 465.037 536.25 464.062C537.225 463.517 538.199 462.972 539.203 462.41C541.743 461.129 544.11 460 547 460Z" fill="#060606"/>
<path d="M547 129C547 142.2 547 155.4 547 169C545.02 169.495 545.02 169.495 543 170C542.67 170.99 542.34 171.98 542 173C540.328 173.879 540.328 173.879 538.25 174.562C537.532 174.811 536.814 175.06 536.074 175.316C535.39 175.542 534.705 175.768 534 176C531.166 176.897 531.166 176.897 529 178C528.67 178.99 528.34 179.98 528 181C525.03 181.495 525.03 181.495 522 182C522 182.66 522 183.32 522 184C519.03 184.99 516.06 185.98 513 187C512.702 181.574 512.485 176.154 512.341 170.722C512.281 168.877 512.199 167.033 512.095 165.191C511.422 152.972 511.422 152.972 513 148C516.497 144.236 520.225 142.715 525 141C526.282 140.309 527.549 139.591 528.789 138.828C529.849 138.225 530.908 137.622 532 137C533.237 136.287 534.474 135.574 535.711 134.859C536.932 134.156 538.154 133.453 539.375 132.75C540.003 132.386 540.631 132.023 541.277 131.648C545.887 129 545.887 129 547 129Z" fill="#090909"/>
<path d="M406.277 137.469C407.281 137.465 408.284 137.461 409.318 137.457C411.439 137.454 413.56 137.462 415.68 137.479C418.922 137.5 422.162 137.479 425.404 137.453C427.466 137.456 429.528 137.461 431.59 137.469C432.558 137.461 433.526 137.453 434.523 137.444C438.873 137.505 441.347 137.604 445.134 139.899C447 142 447 142 447.27 144.141C446.846 146.094 446.423 148.047 446 150C445.34 150 444.68 150 444 150C444 150.66 444 151.32 444 152C437.238 152.127 430.475 152.214 423.712 152.275C421.411 152.3 419.11 152.334 416.81 152.377C413.503 152.438 410.198 152.466 406.891 152.488C405.347 152.527 405.347 152.527 403.772 152.567C396.636 152.569 396.636 152.569 393.351 149.63C391.836 146.68 391.333 145.252 392 142C395.523 136.625 400.468 137.42 406.277 137.469Z" fill="#EDEDED"/>
<path d="M407.938 467.566C409.374 467.559 409.374 467.559 410.84 467.551C412.86 467.544 414.881 467.545 416.901 467.554C419.99 467.562 423.076 467.534 426.164 467.502C428.13 467.5 430.096 467.501 432.062 467.504C432.983 467.493 433.904 467.481 434.853 467.47C439.081 467.516 441.403 467.636 445.082 469.879C447 472 447 472 447.625 474.437C446.689 478.277 445.129 479.593 442 482C438.615 482.74 435.298 482.701 431.844 482.664C430.374 482.671 430.374 482.671 428.874 482.679C426.807 482.682 424.739 482.673 422.671 482.652C419.51 482.625 416.353 482.652 413.191 482.684C411.18 482.68 409.168 482.674 407.156 482.664C406.213 482.674 405.271 482.684 404.299 482.695C399.718 482.613 397.634 482.476 393.873 479.654C392 477 392 477 391.875 473.875C394.635 466.822 401.435 467.546 407.938 467.566Z" fill="#EBEBEB"/>
<path d="M572.715 468.628C573.669 468.621 574.624 468.615 575.607 468.609C576.635 468.618 577.663 468.627 578.723 468.637C579.779 468.636 580.836 468.636 581.924 468.635C584.157 468.638 586.391 468.647 588.624 468.664C592.052 468.687 595.48 468.684 598.908 468.678C601.076 468.683 603.243 468.69 605.41 468.699C606.44 468.698 607.471 468.697 608.532 468.696C609.483 468.706 610.434 468.716 611.414 468.725C612.254 468.73 613.093 468.735 613.957 468.739C616 469 616 469 618 471C618.197 475.14 618.308 478.077 617 482C610.077 482.101 603.154 482.171 596.23 482.22C593.874 482.24 591.517 482.267 589.161 482.302C585.778 482.35 582.395 482.373 579.012 482.391C577.427 482.422 577.427 482.422 575.811 482.453C574.83 482.454 573.849 482.454 572.839 482.454C571.543 482.467 571.543 482.467 570.221 482.481C568 482 568 482 566.221 480.163C564.574 477.245 564.579 475.299 565 472C567.271 468.931 568.988 468.625 572.715 468.628Z" fill="#F2F2F2"/>
<path d="M572.494 137.725C573.891 137.711 573.891 137.711 575.316 137.696C576.828 137.698 576.828 137.698 578.371 137.699C579.404 137.695 580.438 137.691 581.502 137.686C583.69 137.68 585.879 137.68 588.067 137.684C591.42 137.687 594.773 137.664 598.127 137.639C600.25 137.636 602.373 137.636 604.496 137.637C605.502 137.628 606.509 137.618 607.546 137.609C608.48 137.615 609.414 137.621 610.377 137.628C611.199 137.627 612.021 137.626 612.868 137.626C615.502 138.088 616.384 138.908 618 141C618.575 143.847 618.281 146.048 618 149C614.832 151.112 614.023 151.257 610.393 151.291C608.996 151.31 608.996 151.31 607.571 151.329C606.568 151.331 605.565 151.334 604.531 151.336C602.983 151.346 602.983 151.346 601.404 151.356C599.222 151.366 597.04 151.371 594.858 151.371C591.513 151.375 588.169 151.411 584.824 151.449C582.706 151.455 580.587 151.459 578.469 151.461C577.466 151.475 576.462 151.49 575.429 151.505C574.498 151.498 573.567 151.492 572.607 151.486C571.788 151.489 570.969 151.492 570.125 151.494C568 151 568 151 566.2 149.196C564.4 145.902 565.144 143.556 566 140C568.453 137.547 569.124 137.744 572.494 137.725Z" fill="#F6F6F6"/>
<path d="M338.16 379.895C341.232 383.41 340.576 387.437 340.5 391.937C340.515 392.844 340.531 393.751 340.547 394.686C340.508 401.259 340.508 401.259 338.191 404.637C336 406 336 406 332.438 405.875C329 405 329 405 326 403C325.644 400.985 325.644 400.985 325.672 398.535C325.677 397.653 325.682 396.77 325.688 395.861C325.708 394.938 325.729 394.014 325.75 393.062C325.758 391.683 325.758 391.683 325.766 390.275C325.845 383.465 325.845 383.465 327 380C330.956 378.681 334.235 378.269 338.16 379.895Z" fill="#E0E0E0"/>
<path d="M336 214C338.135 215.23 338.135 215.23 340 217C340.486 219.129 340.486 219.129 340.461 221.562C340.457 222.442 340.453 223.321 340.449 224.227C340.425 225.142 340.4 226.057 340.375 227C340.374 227.915 340.372 228.83 340.371 229.773C340.281 236.578 340.281 236.578 338 240C334.555 240.893 332.148 241.47 328.797 240.098C325.858 236.666 326.501 232.92 326.625 228.562C326.626 227.703 326.628 226.844 326.629 225.959C326.688 221.757 326.737 218.659 329 215C331.564 213.718 333.152 213.729 336 214Z" fill="#EDEDED"/>
<path d="M681 379C683.447 380.667 684.79 381.98 685.399 384.935C685.576 387.282 685.595 389.584 685.562 391.937C685.586 392.736 685.61 393.535 685.635 394.357C685.624 398.727 685.386 400.501 682.629 404.066C680 406 680 406 677.375 406C674.839 404.932 673.705 404.134 672 402C671.612 399.871 671.612 399.871 671.602 397.437C671.598 396.558 671.594 395.679 671.59 394.773C671.601 393.858 671.613 392.943 671.625 392C671.608 390.627 671.608 390.627 671.59 389.227C671.594 388.347 671.598 387.468 671.602 386.562C671.607 385.358 671.607 385.358 671.612 384.129C672.572 378.866 676.221 378.317 681 379Z" fill="#EFEFEF"/>
<path d="M682 215C684.011 216.532 684.885 217.428 685.388 219.929C685.392 220.642 685.395 221.355 685.398 222.09C685.402 222.874 685.406 223.659 685.41 224.467C685.399 225.282 685.387 226.097 685.375 226.938C685.387 227.749 685.398 228.56 685.41 229.396C685.393 232.902 685.314 235.373 683.73 238.539C681.642 240.302 680.645 240.513 677.938 240.438C676.638 240.293 675.339 240.149 674 240C671.864 236.796 671.758 236.004 671.805 232.332C671.814 230.993 671.814 230.993 671.824 229.627C671.841 228.698 671.858 227.769 671.875 226.813C671.884 225.872 671.893 224.932 671.902 223.963C671.926 221.642 671.959 219.321 672 217C675.539 215.082 677.935 214.568 682 215Z" fill="#F3F3F3"/>
<path d="M442 317C447.685 318.646 452.767 321.29 458 324C457.01 324.33 456.02 324.66 455 325C454.01 325.66 453.02 326.32 452 327C453.32 327.33 454.64 327.66 456 328C455.01 328.99 454.02 329.98 453 331C444.531 327.062 444.531 327.062 442.438 322.875C442 320 442 320 442 317Z" fill="#151515"/>
<path d="M489 326C494.61 326 500.22 326 506 326C504.022 329.956 502.37 332.191 499 335C496.356 334.805 495.237 334.222 493.297 332.406C492.786 331.777 492.276 331.148 491.75 330.5C490.969 329.556 490.969 329.556 490.172 328.594C489 327 489 327 489 326Z" fill="#0C0C0C"/>
<path d="M464 460C469 461 469 461 471 463C469.68 463 468.36 463 467 463C467 475.21 467 487.42 467 500C466.01 499.67 465.02 499.34 464 499C464 486.13 464 473.26 464 460Z" fill="#464646"/>
<path d="M720 129C720 142.2 720 155.4 720 169C719.34 169 718.68 169 718 169C718 156.79 718 144.58 718 132C716.35 132.33 714.7 132.66 713 133C716.826 129 716.826 129 720 129Z" fill="#3A3A3A"/>
<path d="M464 129C465.98 129.99 465.98 129.99 468 131C467.34 131 466.68 131 466 131C466 143.54 466 156.08 466 169C465.34 169 464.68 169 464 169C464 155.8 464 142.6 464 129Z" fill="#4A4A4A"/>
<path d="M512 479C512.33 479 512.66 479 513 479C513.33 491.54 513.66 504.08 514 517C516.97 515.35 519.94 513.7 523 512C523.66 512 524.32 512 525 512C525 512.66 525 513.32 525 514C520.143 517.011 517.933 518.011 512 519C512 505.8 512 492.6 512 479Z" fill="#909090"/>
<path d="M347 145C347 145.66 347 146.32 347 147C346.041 147.65 346.041 147.65 345.063 148.312C342.386 150.502 342.45 151.605 342 155C341.919 157.422 341.892 159.846 341.902 162.27C341.904 162.951 341.905 163.632 341.907 164.333C341.912 166.493 341.925 168.653 341.938 170.812C341.943 172.283 341.947 173.754 341.951 175.225C341.962 178.816 341.979 182.408 342 186C342.66 186.33 343.32 186.66 344 187C342.02 187.495 342.02 187.495 340 188C339.876 182.358 339.786 176.718 339.725 171.075C339.7 169.155 339.666 167.236 339.623 165.316C339.562 162.558 339.534 159.801 339.512 157.043C339.473 155.754 339.473 155.754 339.434 154.439C339.432 152.182 339.471 150.193 340 148C342.434 145.91 343.784 145 347 145Z" fill="#3E3E3E"/>
<path d="M517 283C517 286 517 286 514 292C499.15 291.67 484.3 291.34 469 291C469 290.67 469 290.34 469 290C470.915 290.002 470.915 290.002 472.868 290.003C477.611 290 482.354 289.957 487.097 289.902C489.148 289.884 491.2 289.877 493.251 289.88C496.204 289.883 499.153 289.847 502.105 289.805C503.02 289.814 503.935 289.823 504.877 289.832C509.649 289.798 509.649 289.798 513.724 287.611C515.299 285.808 515.299 285.808 517 283Z" fill="#C7C7C7"/>
<path d="M345 311C343.125 315.875 343.125 315.875 342 317C341.84 319.592 341.741 322.16 341.684 324.754C341.663 325.529 341.642 326.305 341.621 327.104C341.555 329.59 341.496 332.076 341.437 334.562C341.394 336.244 341.351 337.926 341.307 339.607C341.199 343.738 341.098 347.869 341 352C342.98 351.505 342.98 351.505 345 351C344.67 351.66 344.34 352.32 344 353C342.68 353 341.36 353 340 353C339.926 347.501 339.871 342.002 339.835 336.502C339.82 334.631 339.8 332.76 339.774 330.889C339.737 328.201 339.72 325.513 339.707 322.824C339.692 321.987 339.676 321.149 339.66 320.286C339.658 314.427 339.658 314.427 341.396 312.255C343 311 343 311 345 311Z" fill="#3A3A3A"/>
<path d="M720 460C720 472.87 720 485.74 720 499C719.67 499 719.34 499 719 499C718.505 481.675 718.505 481.675 718 464C714.887 464 712.892 464.174 710 465C710 464.34 710 463.68 710 463C716.625 460 716.625 460 720 460Z" fill="#545454"/>
<path d="M720 295C720 307.87 720 320.74 720 334C719.67 334 719.34 334 719 334C718.67 321.79 718.34 309.58 718 297C716.02 297.33 714.04 297.66 712 298C714.633 295.367 716.305 295 720 295Z" fill="#525252"/>
<path d="M670 148C670.66 148.33 671.32 148.66 672 149C672 161.87 672 174.74 672 188C670.35 187.67 668.7 187.34 667 187C667.99 186.34 668.98 185.68 670 185C670.267 182.163 670.348 179.546 670.293 176.711C670.289 175.893 670.284 175.074 670.28 174.231C670.263 171.612 670.226 168.994 670.188 166.375C670.172 164.602 670.159 162.828 670.146 161.055C670.113 156.703 670.062 152.352 670 148Z" fill="#4D4D4D"/>
<path d="M547 129C547 142.2 547 155.4 547 169C546.67 169 546.34 169 546 169C545.978 167.38 545.978 167.38 545.956 165.727C545.898 161.727 545.821 157.728 545.738 153.729C545.704 151.997 545.676 150.264 545.654 148.532C545.62 146.044 545.568 143.558 545.512 141.07C545.505 140.293 545.499 139.516 545.492 138.715C545.46 136.3 545.46 136.3 545 133C544.01 132.34 543.02 131.68 542 131C545.875 129 545.875 129 547 129Z" fill="#1F1F1F"/>
<path d="M670 150C670.33 150 670.66 150 671 150C671 161.55 671 173.1 671 185C668.525 185.495 668.525 185.495 666 186C666.99 185.505 666.99 185.505 668 185C668 184.34 668 183.68 668 183C668.66 183 669.32 183 670 183C670 172.11 670 161.22 670 150Z" fill="#171717"/>
<path d="M442 317C444.02 317.602 446.021 318.273 448 319C448.33 319.66 448.66 320.32 449 321C448.01 321.495 448.01 321.495 447 322C447.33 323.65 447.66 325.3 448 327C445.525 326.01 445.525 326.01 443 325C442.67 322.36 442.34 319.72 442 317Z" fill="#292929"/>
<path d="M464 260C464.66 260.33 465.32 260.66 466 261C464.855 262.313 463.709 263.625 462.563 264.938C461.924 265.668 461.286 266.399 460.629 267.152C459.775 268.121 458.913 269.087 458 270C457.928 271.853 457.916 273.708 457.938 275.562C457.947 276.574 457.956 277.586 457.965 278.629C457.976 279.411 457.988 280.194 458 281C457.34 280.67 456.68 280.34 456 280C455.313 274.898 454.888 270.707 457.781 266.266C459.773 264.064 461.798 261.99 464 260Z" fill="#3B3B3B"/>
<path d="M533 285C534.675 285.286 536.344 285.618 538 286C538 287.32 538 288.64 538 290C535.36 290 532.72 290 530 290C531.875 286.125 531.875 286.125 533 285Z" fill="#363636"/>
<path d="M312 511C315.96 512.98 315.96 512.98 320 515C319.67 515.66 319.34 516.32 319 517C313.25 517.125 313.25 517.125 311 516C311.33 514.35 311.66 512.7 312 511Z" fill="#E9E9E9"/>
<path d="M650 439C652.64 439 655.28 439 658 439C654.8 441.743 651.995 443.63 648 445C647.67 444.01 647.34 443.02 647 442C647.66 442 648.32 442 649 442C649.33 441.01 649.66 440.02 650 439Z" fill="#D0D0D0"/>
<path d="M529 504C530.32 504.66 531.64 505.32 533 506C531.625 507.5 531.625 507.5 530 509C529.34 509 528.68 509 528 509C527.67 509.99 527.34 510.98 527 512C525.68 512 524.36 512 523 512C523.33 511.01 523.66 510.02 524 509C524.99 509.33 525.98 509.66 527 510C527.144 509.381 527.289 508.762 527.438 508.125C528 506 528 506 529 504Z" fill="#212121"/>
<path d="M305 295C307 298.75 307 298.75 307 301C307.33 301.66 307.66 302.32 308 303C306.667 302.333 305.333 301.667 304 301C302.948 300.505 301.896 300.01 300.812 299.5C298 298 298 298 297 296C298.145 296.309 298.145 296.309 299.312 296.625C302.219 297.334 302.219 297.334 305 295Z" fill="#D3D3D3"/>
<path d="M649 444C649 447 649 447 648 450C649.65 450.33 651.3 450.66 653 451C652.67 451.66 652.34 452.32 652 453C649.525 452.01 649.525 452.01 647 451C647 450.34 647 449.68 647 449C646.01 448.67 645.02 448.34 644 448C644 447.34 644 446.68 644 446C645.65 445.34 647.3 444.68 649 444Z" fill="#626262"/>
<path d="M653 303C653.99 303.33 654.98 303.66 656 304C656 304.66 656 305.32 656 306C657.114 306.186 657.114 306.186 658.25 306.375C660.801 306.955 662.727 307.737 665 309C662.367 310.316 661.198 309.748 658.375 309.062C657.558 308.868 656.74 308.673 655.898 308.473C654.959 308.239 654.959 308.239 654 308C654.33 307.01 654.66 306.02 655 305C654.34 305 653.68 305 653 305C653 304.34 653 303.68 653 303Z" fill="#333333"/>
<path d="M338 264C334.138 265.997 331.448 267 327 267C326.34 266.67 325.68 266.34 325 266C329.778 263.086 332.551 262.801 338 264ZM329 267C329.99 267.495 329.99 267.495 331 268C330.01 268.495 330.01 268.495 329 269C329 268.34 329 267.68 329 267Z" fill="#3A3A3A"/>
<path d="M524 275C525 278 525 278 524.375 280.125C523 282 523 282 520.375 282.75C519.199 282.874 519.199 282.874 518 283C519.736 279.942 521.385 277.366 524 275Z" fill="#C1C1C1"/>
<path d="M525 512C525 512.66 525 513.32 525 514C518.25 518 518.25 518 516 518C516 517.34 516 516.68 516 516C522.75 512 522.75 512 525 512Z" fill="#B0B0B0"/>
<path d="M718 169C718 169.99 718 170.98 718 172C715.435 174.565 713.523 174.54 710 175C714.625 170.125 714.625 170.125 718 169Z" fill="#BABABA"/>
<path d="M324 511C326 513 326 513 326.125 515.625C326.084 516.409 326.043 517.192 326 518C323.133 517.427 322.139 517.139 320 515C321.32 515 322.64 515 324 515C324 513.68 324 512.36 324 511Z" fill="#282828"/>
<path d="M302 444C302.66 444.33 303.32 444.66 304 445C303.01 446.485 303.01 446.485 302 448C302.99 448.99 303.98 449.98 305 451C302.03 450.505 302.03 450.505 299 450C299 448.68 299 447.36 299 446C299.99 445.34 300.98 444.68 302 444Z" fill="#959595"/>
<path d="M329 261C331.812 260.812 331.812 260.812 335 261C335.99 261.99 336.98 262.98 338 264C335.03 264 332.06 264 329 264C329 263.01 329 262.02 329 261Z" fill="#D1D1D1"/>
<path d="M547 129C547 132.63 547 136.26 547 140C546.67 140 546.34 140 546 140C545.897 138.886 545.794 137.773 545.688 136.625C545.461 135.429 545.234 134.232 545 133C544.01 132.34 543.02 131.68 542 131C545.875 129 545.875 129 547 129Z" fill="#2F2F2F"/>
<path d="M709 300C708.312 301.938 708.312 301.938 707 304C704.375 304.75 704.375 304.75 702 305C706.75 300 706.75 300 709 300Z" fill="#484848"/>
<rect x="465" y="327" width="82" height="32" fill="#080808"/>
<rect x="461" y="261" width="90" height="28" fill="#080808"/>
</g>
<defs>
<clipPath id="clip0_1_107">
<rect width="825" height="666" fill="white" transform="translate(104 14)"/>
</clipPath>
</defs>
</svg>
